%TF.GenerationSoftware,KiCad,Pcbnew,10.0.4*%
%TF.CreationDate,2026-07-24T19:44:11+02:00*%
%TF.ProjectId,PulseWristTrack,50756c73-6557-4726-9973-74547261636b,rev?*%
%TF.SameCoordinates,Original*%
%TF.FileFunction,AssemblyDrawing,Top*%
%FSLAX46Y46*%
G04 Gerber Fmt 4.6, Leading zero omitted, Abs format (unit mm)*
G04 Created by KiCad (PCBNEW 10.0.4) date 2026-07-24 19:44:11*
%MOMM*%
%LPD*%
G01*
G04 APERTURE LIST*
%ADD10C,0.150000*%
%ADD11C,0.158750*%
%ADD12C,0.100000*%
G04 APERTURE END LIST*
D10*
X-11142857Y618990D02*
X-11000000Y571371D01*
X-11000000Y571371D02*
X-10952381Y523752D01*
X-10952381Y523752D02*
X-10904762Y428514D01*
X-10904762Y428514D02*
X-10904762Y285657D01*
X-10904762Y285657D02*
X-10952381Y190419D01*
X-10952381Y190419D02*
X-11000000Y142800D01*
X-11000000Y142800D02*
X-11095238Y95180D01*
X-11095238Y95180D02*
X-11476190Y95180D01*
X-11476190Y95180D02*
X-11476190Y1095180D01*
X-11476190Y1095180D02*
X-11142857Y1095180D01*
X-11142857Y1095180D02*
X-11047619Y1047561D01*
X-11047619Y1047561D02*
X-11000000Y999942D01*
X-11000000Y999942D02*
X-10952381Y904704D01*
X-10952381Y904704D02*
X-10952381Y809466D01*
X-10952381Y809466D02*
X-11000000Y714228D01*
X-11000000Y714228D02*
X-11047619Y666609D01*
X-11047619Y666609D02*
X-11142857Y618990D01*
X-11142857Y618990D02*
X-11476190Y618990D01*
X-10523809Y380895D02*
X-10047619Y380895D01*
X-10619047Y95180D02*
X-10285714Y1095180D01*
X-10285714Y1095180D02*
X-9952381Y95180D01*
X-9761904Y1095180D02*
X-9190476Y1095180D01*
X-9476190Y95180D02*
X-9476190Y1095180D01*
X-8999999Y1095180D02*
X-8428571Y1095180D01*
X-8714285Y95180D02*
X-8714285Y1095180D01*
X-8333333Y-57D02*
X-7571428Y-57D01*
X-7047618Y1095180D02*
X-7047618Y380895D01*
X-7047618Y380895D02*
X-7095237Y238038D01*
X-7095237Y238038D02*
X-7190475Y142800D01*
X-7190475Y142800D02*
X-7333332Y95180D01*
X-7333332Y95180D02*
X-7428570Y95180D01*
X-6619046Y142800D02*
X-6476189Y95180D01*
X-6476189Y95180D02*
X-6238094Y95180D01*
X-6238094Y95180D02*
X-6142856Y142800D01*
X-6142856Y142800D02*
X-6095237Y190419D01*
X-6095237Y190419D02*
X-6047618Y285657D01*
X-6047618Y285657D02*
X-6047618Y380895D01*
X-6047618Y380895D02*
X-6095237Y476133D01*
X-6095237Y476133D02*
X-6142856Y523752D01*
X-6142856Y523752D02*
X-6238094Y571371D01*
X-6238094Y571371D02*
X-6428570Y618990D01*
X-6428570Y618990D02*
X-6523808Y666609D01*
X-6523808Y666609D02*
X-6571427Y714228D01*
X-6571427Y714228D02*
X-6619046Y809466D01*
X-6619046Y809466D02*
X-6619046Y904704D01*
X-6619046Y904704D02*
X-6571427Y999942D01*
X-6571427Y999942D02*
X-6523808Y1047561D01*
X-6523808Y1047561D02*
X-6428570Y1095180D01*
X-6428570Y1095180D02*
X-6190475Y1095180D01*
X-6190475Y1095180D02*
X-6047618Y1047561D01*
X-5761903Y1095180D02*
X-5190475Y1095180D01*
X-5476189Y95180D02*
X-5476189Y1095180D01*
X-5095237Y-57D02*
X-4333332Y-57D01*
X-4095236Y95180D02*
X-4095236Y1095180D01*
X-4095236Y1095180D02*
X-3714284Y1095180D01*
X-3714284Y1095180D02*
X-3619046Y1047561D01*
X-3619046Y1047561D02*
X-3571427Y999942D01*
X-3571427Y999942D02*
X-3523808Y904704D01*
X-3523808Y904704D02*
X-3523808Y761847D01*
X-3523808Y761847D02*
X-3571427Y666609D01*
X-3571427Y666609D02*
X-3619046Y618990D01*
X-3619046Y618990D02*
X-3714284Y571371D01*
X-3714284Y571371D02*
X-4095236Y571371D01*
X-3095236Y95180D02*
X-3095236Y1095180D01*
X-3095236Y618990D02*
X-2523808Y618990D01*
X-2523808Y95180D02*
X-2523808Y1095180D01*
X-7333333Y6045180D02*
X-7333333Y5330895D01*
X-7333333Y5330895D02*
X-7380952Y5188038D01*
X-7380952Y5188038D02*
X-7476190Y5092800D01*
X-7476190Y5092800D02*
X-7619047Y5045180D01*
X-7619047Y5045180D02*
X-7714285Y5045180D01*
X-6333333Y5045180D02*
X-6904761Y5045180D01*
X-6619047Y5045180D02*
X-6619047Y6045180D01*
X-6619047Y6045180D02*
X-6714285Y5902323D01*
X-6714285Y5902323D02*
X-6809523Y5807085D01*
X-6809523Y5807085D02*
X-6904761Y5759466D01*
D11*
X2233094Y-579271D02*
X2233094Y690728D01*
X2233094Y690728D02*
X2656428Y-216414D01*
X2656428Y-216414D02*
X3079761Y690728D01*
X3079761Y690728D02*
X3079761Y-579271D01*
X3865952Y-579271D02*
X3745000Y-518795D01*
X3745000Y-518795D02*
X3684523Y-458318D01*
X3684523Y-458318D02*
X3624047Y-337366D01*
X3624047Y-337366D02*
X3624047Y25490D01*
X3624047Y25490D02*
X3684523Y146443D01*
X3684523Y146443D02*
X3745000Y206919D01*
X3745000Y206919D02*
X3865952Y267395D01*
X3865952Y267395D02*
X4047381Y267395D01*
X4047381Y267395D02*
X4168333Y206919D01*
X4168333Y206919D02*
X4228809Y146443D01*
X4228809Y146443D02*
X4289285Y25490D01*
X4289285Y25490D02*
X4289285Y-337366D01*
X4289285Y-337366D02*
X4228809Y-458318D01*
X4228809Y-458318D02*
X4168333Y-518795D01*
X4168333Y-518795D02*
X4047381Y-579271D01*
X4047381Y-579271D02*
X3865952Y-579271D01*
X5377857Y267395D02*
X5377857Y-579271D01*
X4833571Y267395D02*
X4833571Y-397842D01*
X4833571Y-397842D02*
X4894048Y-518795D01*
X4894048Y-518795D02*
X5015000Y-579271D01*
X5015000Y-579271D02*
X5196429Y-579271D01*
X5196429Y-579271D02*
X5317381Y-518795D01*
X5317381Y-518795D02*
X5377857Y-458318D01*
X5982619Y267395D02*
X5982619Y-579271D01*
X5982619Y146443D02*
X6043096Y206919D01*
X6043096Y206919D02*
X6164048Y267395D01*
X6164048Y267395D02*
X6345477Y267395D01*
X6345477Y267395D02*
X6466429Y206919D01*
X6466429Y206919D02*
X6526905Y85966D01*
X6526905Y85966D02*
X6526905Y-579271D01*
X6950239Y267395D02*
X7434048Y267395D01*
X7131667Y690728D02*
X7131667Y-397842D01*
X7131667Y-397842D02*
X7192144Y-518795D01*
X7192144Y-518795D02*
X7313096Y-579271D01*
X7313096Y-579271D02*
X7434048Y-579271D01*
X7857381Y-579271D02*
X7857381Y267395D01*
X7857381Y690728D02*
X7796905Y630252D01*
X7796905Y630252D02*
X7857381Y569776D01*
X7857381Y569776D02*
X7917858Y630252D01*
X7917858Y630252D02*
X7857381Y690728D01*
X7857381Y690728D02*
X7857381Y569776D01*
X8462143Y267395D02*
X8462143Y-579271D01*
X8462143Y146443D02*
X8522620Y206919D01*
X8522620Y206919D02*
X8643572Y267395D01*
X8643572Y267395D02*
X8825001Y267395D01*
X8825001Y267395D02*
X8945953Y206919D01*
X8945953Y206919D02*
X9006429Y85966D01*
X9006429Y85966D02*
X9006429Y-579271D01*
X10155477Y267395D02*
X10155477Y-760699D01*
X10155477Y-760699D02*
X10095001Y-881652D01*
X10095001Y-881652D02*
X10034525Y-942128D01*
X10034525Y-942128D02*
X9913572Y-1002604D01*
X9913572Y-1002604D02*
X9732144Y-1002604D01*
X9732144Y-1002604D02*
X9611191Y-942128D01*
X10155477Y-518795D02*
X10034525Y-579271D01*
X10034525Y-579271D02*
X9792620Y-579271D01*
X9792620Y-579271D02*
X9671668Y-518795D01*
X9671668Y-518795D02*
X9611191Y-458318D01*
X9611191Y-458318D02*
X9550715Y-337366D01*
X9550715Y-337366D02*
X9550715Y25490D01*
X9550715Y25490D02*
X9611191Y146443D01*
X9611191Y146443D02*
X9671668Y206919D01*
X9671668Y206919D02*
X9792620Y267395D01*
X9792620Y267395D02*
X10034525Y267395D01*
X10034525Y267395D02*
X10155477Y206919D01*
X10760239Y-579271D02*
X10760239Y690728D01*
X10760239Y85966D02*
X11485954Y85966D01*
X11485954Y-579271D02*
X11485954Y690728D01*
X12272144Y-579271D02*
X12151192Y-518795D01*
X12151192Y-518795D02*
X12090715Y-458318D01*
X12090715Y-458318D02*
X12030239Y-337366D01*
X12030239Y-337366D02*
X12030239Y25490D01*
X12030239Y25490D02*
X12090715Y146443D01*
X12090715Y146443D02*
X12151192Y206919D01*
X12151192Y206919D02*
X12272144Y267395D01*
X12272144Y267395D02*
X12453573Y267395D01*
X12453573Y267395D02*
X12574525Y206919D01*
X12574525Y206919D02*
X12635001Y146443D01*
X12635001Y146443D02*
X12695477Y25490D01*
X12695477Y25490D02*
X12695477Y-337366D01*
X12695477Y-337366D02*
X12635001Y-458318D01*
X12635001Y-458318D02*
X12574525Y-518795D01*
X12574525Y-518795D02*
X12453573Y-579271D01*
X12453573Y-579271D02*
X12272144Y-579271D01*
X13421192Y-579271D02*
X13300240Y-518795D01*
X13300240Y-518795D02*
X13239763Y-397842D01*
X13239763Y-397842D02*
X13239763Y690728D01*
X14388811Y-518795D02*
X14267859Y-579271D01*
X14267859Y-579271D02*
X14025954Y-579271D01*
X14025954Y-579271D02*
X13905001Y-518795D01*
X13905001Y-518795D02*
X13844525Y-397842D01*
X13844525Y-397842D02*
X13844525Y85966D01*
X13844525Y85966D02*
X13905001Y206919D01*
X13905001Y206919D02*
X14025954Y267395D01*
X14025954Y267395D02*
X14267859Y267395D01*
X14267859Y267395D02*
X14388811Y206919D01*
X14388811Y206919D02*
X14449287Y85966D01*
X14449287Y85966D02*
X14449287Y-34985D01*
X14449287Y-34985D02*
X13844525Y-155937D01*
X14691192Y-700223D02*
X15658811Y-700223D01*
X15900715Y569776D02*
X15961191Y630252D01*
X15961191Y630252D02*
X16082144Y690728D01*
X16082144Y690728D02*
X16384525Y690728D01*
X16384525Y690728D02*
X16505477Y630252D01*
X16505477Y630252D02*
X16565953Y569776D01*
X16565953Y569776D02*
X16626430Y448824D01*
X16626430Y448824D02*
X16626430Y327871D01*
X16626430Y327871D02*
X16565953Y146443D01*
X16565953Y146443D02*
X15840239Y-579271D01*
X15840239Y-579271D02*
X16626430Y-579271D01*
X17170715Y-458318D02*
X17231192Y-518795D01*
X17231192Y-518795D02*
X17170715Y-579271D01*
X17170715Y-579271D02*
X17110239Y-518795D01*
X17110239Y-518795D02*
X17170715Y-458318D01*
X17170715Y-458318D02*
X17170715Y-579271D01*
X18440716Y-579271D02*
X17715001Y-579271D01*
X18077858Y-579271D02*
X18077858Y690728D01*
X18077858Y690728D02*
X17956906Y509300D01*
X17956906Y509300D02*
X17835954Y388347D01*
X17835954Y388347D02*
X17715001Y327871D01*
X18985001Y-579271D02*
X18985001Y267395D01*
X18985001Y146443D02*
X19045478Y206919D01*
X19045478Y206919D02*
X19166430Y267395D01*
X19166430Y267395D02*
X19347859Y267395D01*
X19347859Y267395D02*
X19468811Y206919D01*
X19468811Y206919D02*
X19529287Y85966D01*
X19529287Y85966D02*
X19529287Y-579271D01*
X19529287Y85966D02*
X19589763Y206919D01*
X19589763Y206919D02*
X19710716Y267395D01*
X19710716Y267395D02*
X19892144Y267395D01*
X19892144Y267395D02*
X20013097Y206919D01*
X20013097Y206919D02*
X20073573Y85966D01*
X20073573Y85966D02*
X20073573Y-579271D01*
X20678334Y-579271D02*
X20678334Y267395D01*
X20678334Y146443D02*
X20738811Y206919D01*
X20738811Y206919D02*
X20859763Y267395D01*
X20859763Y267395D02*
X21041192Y267395D01*
X21041192Y267395D02*
X21162144Y206919D01*
X21162144Y206919D02*
X21222620Y85966D01*
X21222620Y85966D02*
X21222620Y-579271D01*
X21222620Y85966D02*
X21283096Y206919D01*
X21283096Y206919D02*
X21404049Y267395D01*
X21404049Y267395D02*
X21585477Y267395D01*
X21585477Y267395D02*
X21706430Y206919D01*
X21706430Y206919D02*
X21766906Y85966D01*
X21766906Y85966D02*
X21766906Y-579271D01*
D10*
X2857142Y3545180D02*
X2857142Y2830895D01*
X2857142Y2830895D02*
X2809523Y2688038D01*
X2809523Y2688038D02*
X2714285Y2592800D01*
X2714285Y2592800D02*
X2571428Y2545180D01*
X2571428Y2545180D02*
X2476190Y2545180D01*
X3285714Y2592800D02*
X3428571Y2545180D01*
X3428571Y2545180D02*
X3666666Y2545180D01*
X3666666Y2545180D02*
X3761904Y2592800D01*
X3761904Y2592800D02*
X3809523Y2640419D01*
X3809523Y2640419D02*
X3857142Y2735657D01*
X3857142Y2735657D02*
X3857142Y2830895D01*
X3857142Y2830895D02*
X3809523Y2926133D01*
X3809523Y2926133D02*
X3761904Y2973752D01*
X3761904Y2973752D02*
X3666666Y3021371D01*
X3666666Y3021371D02*
X3476190Y3068990D01*
X3476190Y3068990D02*
X3380952Y3116609D01*
X3380952Y3116609D02*
X3333333Y3164228D01*
X3333333Y3164228D02*
X3285714Y3259466D01*
X3285714Y3259466D02*
X3285714Y3354704D01*
X3285714Y3354704D02*
X3333333Y3449942D01*
X3333333Y3449942D02*
X3380952Y3497561D01*
X3380952Y3497561D02*
X3476190Y3545180D01*
X3476190Y3545180D02*
X3714285Y3545180D01*
X3714285Y3545180D02*
X3857142Y3497561D01*
X4809523Y2545180D02*
X4238095Y2545180D01*
X4523809Y2545180D02*
X4523809Y3545180D01*
X4523809Y3545180D02*
X4428571Y3402323D01*
X4428571Y3402323D02*
X4333333Y3307085D01*
X4333333Y3307085D02*
X4238095Y3259466D01*
X5428571Y3545180D02*
X5523809Y3545180D01*
X5523809Y3545180D02*
X5619047Y3497561D01*
X5619047Y3497561D02*
X5666666Y3449942D01*
X5666666Y3449942D02*
X5714285Y3354704D01*
X5714285Y3354704D02*
X5761904Y3164228D01*
X5761904Y3164228D02*
X5761904Y2926133D01*
X5761904Y2926133D02*
X5714285Y2735657D01*
X5714285Y2735657D02*
X5666666Y2640419D01*
X5666666Y2640419D02*
X5619047Y2592800D01*
X5619047Y2592800D02*
X5523809Y2545180D01*
X5523809Y2545180D02*
X5428571Y2545180D01*
X5428571Y2545180D02*
X5333333Y2592800D01*
X5333333Y2592800D02*
X5285714Y2640419D01*
X5285714Y2640419D02*
X5238095Y2735657D01*
X5238095Y2735657D02*
X5190476Y2926133D01*
X5190476Y2926133D02*
X5190476Y3164228D01*
X5190476Y3164228D02*
X5238095Y3354704D01*
X5238095Y3354704D02*
X5285714Y3449942D01*
X5285714Y3449942D02*
X5333333Y3497561D01*
X5333333Y3497561D02*
X5428571Y3545180D01*
X6142857Y3449942D02*
X6190476Y3497561D01*
X6190476Y3497561D02*
X6285714Y3545180D01*
X6285714Y3545180D02*
X6523809Y3545180D01*
X6523809Y3545180D02*
X6619047Y3497561D01*
X6619047Y3497561D02*
X6666666Y3449942D01*
X6666666Y3449942D02*
X6714285Y3354704D01*
X6714285Y3354704D02*
X6714285Y3259466D01*
X6714285Y3259466D02*
X6666666Y3116609D01*
X6666666Y3116609D02*
X6095238Y2545180D01*
X6095238Y2545180D02*
X6714285Y2545180D01*
X7333333Y3545180D02*
X7428571Y3545180D01*
X7428571Y3545180D02*
X7523809Y3497561D01*
X7523809Y3497561D02*
X7571428Y3449942D01*
X7571428Y3449942D02*
X7619047Y3354704D01*
X7619047Y3354704D02*
X7666666Y3164228D01*
X7666666Y3164228D02*
X7666666Y2926133D01*
X7666666Y2926133D02*
X7619047Y2735657D01*
X7619047Y2735657D02*
X7571428Y2640419D01*
X7571428Y2640419D02*
X7523809Y2592800D01*
X7523809Y2592800D02*
X7428571Y2545180D01*
X7428571Y2545180D02*
X7333333Y2545180D01*
X7333333Y2545180D02*
X7238095Y2592800D01*
X7238095Y2592800D02*
X7190476Y2640419D01*
X7190476Y2640419D02*
X7142857Y2735657D01*
X7142857Y2735657D02*
X7095238Y2926133D01*
X7095238Y2926133D02*
X7095238Y3164228D01*
X7095238Y3164228D02*
X7142857Y3354704D01*
X7142857Y3354704D02*
X7190476Y3449942D01*
X7190476Y3449942D02*
X7238095Y3497561D01*
X7238095Y3497561D02*
X7333333Y3545180D01*
X8619047Y2545180D02*
X8047619Y2545180D01*
X8333333Y2545180D02*
X8333333Y3545180D01*
X8333333Y3545180D02*
X8238095Y3402323D01*
X8238095Y3402323D02*
X8142857Y3307085D01*
X8142857Y3307085D02*
X8047619Y3259466D01*
X9571428Y2545180D02*
X9000000Y2545180D01*
X9285714Y2545180D02*
X9285714Y3545180D01*
X9285714Y3545180D02*
X9190476Y3402323D01*
X9190476Y3402323D02*
X9095238Y3307085D01*
X9095238Y3307085D02*
X9000000Y3259466D01*
X9952381Y2592800D02*
X10095238Y2545180D01*
X10095238Y2545180D02*
X10333333Y2545180D01*
X10333333Y2545180D02*
X10428571Y2592800D01*
X10428571Y2592800D02*
X10476190Y2640419D01*
X10476190Y2640419D02*
X10523809Y2735657D01*
X10523809Y2735657D02*
X10523809Y2830895D01*
X10523809Y2830895D02*
X10476190Y2926133D01*
X10476190Y2926133D02*
X10428571Y2973752D01*
X10428571Y2973752D02*
X10333333Y3021371D01*
X10333333Y3021371D02*
X10142857Y3068990D01*
X10142857Y3068990D02*
X10047619Y3116609D01*
X10047619Y3116609D02*
X10000000Y3164228D01*
X10000000Y3164228D02*
X9952381Y3259466D01*
X9952381Y3259466D02*
X9952381Y3354704D01*
X9952381Y3354704D02*
X10000000Y3449942D01*
X10000000Y3449942D02*
X10047619Y3497561D01*
X10047619Y3497561D02*
X10142857Y3545180D01*
X10142857Y3545180D02*
X10380952Y3545180D01*
X10380952Y3545180D02*
X10523809Y3497561D01*
X10904762Y2830895D02*
X11380952Y2830895D01*
X10809524Y2545180D02*
X11142857Y3545180D01*
X11142857Y3545180D02*
X11476190Y2545180D01*
X12476190Y2449942D02*
X12380952Y2497561D01*
X12380952Y2497561D02*
X12285714Y2592800D01*
X12285714Y2592800D02*
X12142857Y2735657D01*
X12142857Y2735657D02*
X12047619Y2783276D01*
X12047619Y2783276D02*
X11952381Y2783276D01*
X12000000Y2545180D02*
X11904762Y2592800D01*
X11904762Y2592800D02*
X11809524Y2688038D01*
X11809524Y2688038D02*
X11761905Y2878514D01*
X11761905Y2878514D02*
X11761905Y3211847D01*
X11761905Y3211847D02*
X11809524Y3402323D01*
X11809524Y3402323D02*
X11904762Y3497561D01*
X11904762Y3497561D02*
X12000000Y3545180D01*
X12000000Y3545180D02*
X12190476Y3545180D01*
X12190476Y3545180D02*
X12285714Y3497561D01*
X12285714Y3497561D02*
X12380952Y3402323D01*
X12380952Y3402323D02*
X12428571Y3211847D01*
X12428571Y3211847D02*
X12428571Y2878514D01*
X12428571Y2878514D02*
X12380952Y2688038D01*
X12380952Y2688038D02*
X12285714Y2592800D01*
X12285714Y2592800D02*
X12190476Y2545180D01*
X12190476Y2545180D02*
X12000000Y2545180D01*
X12857143Y2545180D02*
X12857143Y3545180D01*
X12857143Y3545180D02*
X13428571Y2545180D01*
X13428571Y2545180D02*
X13428571Y3545180D01*
X6666667Y7592800D02*
X6809524Y7545180D01*
X6809524Y7545180D02*
X7047619Y7545180D01*
X7047619Y7545180D02*
X7142857Y7592800D01*
X7142857Y7592800D02*
X7190476Y7640419D01*
X7190476Y7640419D02*
X7238095Y7735657D01*
X7238095Y7735657D02*
X7238095Y7830895D01*
X7238095Y7830895D02*
X7190476Y7926133D01*
X7190476Y7926133D02*
X7142857Y7973752D01*
X7142857Y7973752D02*
X7047619Y8021371D01*
X7047619Y8021371D02*
X6857143Y8068990D01*
X6857143Y8068990D02*
X6761905Y8116609D01*
X6761905Y8116609D02*
X6714286Y8164228D01*
X6714286Y8164228D02*
X6666667Y8259466D01*
X6666667Y8259466D02*
X6666667Y8354704D01*
X6666667Y8354704D02*
X6714286Y8449942D01*
X6714286Y8449942D02*
X6761905Y8497561D01*
X6761905Y8497561D02*
X6857143Y8545180D01*
X6857143Y8545180D02*
X7095238Y8545180D01*
X7095238Y8545180D02*
X7238095Y8497561D01*
X7571429Y8545180D02*
X7809524Y7545180D01*
X7809524Y7545180D02*
X8000000Y8259466D01*
X8000000Y8259466D02*
X8190476Y7545180D01*
X8190476Y7545180D02*
X8428572Y8545180D01*
X9333333Y7545180D02*
X8761905Y7545180D01*
X9047619Y7545180D02*
X9047619Y8545180D01*
X9047619Y8545180D02*
X8952381Y8402323D01*
X8952381Y8402323D02*
X8857143Y8307085D01*
X8857143Y8307085D02*
X8761905Y8259466D01*
D11*
X-21766905Y-579271D02*
X-21766905Y690728D01*
X-21766905Y690728D02*
X-21343571Y-216414D01*
X-21343571Y-216414D02*
X-20920238Y690728D01*
X-20920238Y690728D02*
X-20920238Y-579271D01*
X-20134047Y-579271D02*
X-20254999Y-518795D01*
X-20254999Y-518795D02*
X-20315476Y-458318D01*
X-20315476Y-458318D02*
X-20375952Y-337366D01*
X-20375952Y-337366D02*
X-20375952Y25490D01*
X-20375952Y25490D02*
X-20315476Y146443D01*
X-20315476Y146443D02*
X-20254999Y206919D01*
X-20254999Y206919D02*
X-20134047Y267395D01*
X-20134047Y267395D02*
X-19952618Y267395D01*
X-19952618Y267395D02*
X-19831666Y206919D01*
X-19831666Y206919D02*
X-19771190Y146443D01*
X-19771190Y146443D02*
X-19710714Y25490D01*
X-19710714Y25490D02*
X-19710714Y-337366D01*
X-19710714Y-337366D02*
X-19771190Y-458318D01*
X-19771190Y-458318D02*
X-19831666Y-518795D01*
X-19831666Y-518795D02*
X-19952618Y-579271D01*
X-19952618Y-579271D02*
X-20134047Y-579271D01*
X-18622142Y267395D02*
X-18622142Y-579271D01*
X-19166428Y267395D02*
X-19166428Y-397842D01*
X-19166428Y-397842D02*
X-19105951Y-518795D01*
X-19105951Y-518795D02*
X-18984999Y-579271D01*
X-18984999Y-579271D02*
X-18803570Y-579271D01*
X-18803570Y-579271D02*
X-18682618Y-518795D01*
X-18682618Y-518795D02*
X-18622142Y-458318D01*
X-18017380Y267395D02*
X-18017380Y-579271D01*
X-18017380Y146443D02*
X-17956903Y206919D01*
X-17956903Y206919D02*
X-17835951Y267395D01*
X-17835951Y267395D02*
X-17654522Y267395D01*
X-17654522Y267395D02*
X-17533570Y206919D01*
X-17533570Y206919D02*
X-17473094Y85966D01*
X-17473094Y85966D02*
X-17473094Y-579271D01*
X-17049760Y267395D02*
X-16565951Y267395D01*
X-16868332Y690728D02*
X-16868332Y-397842D01*
X-16868332Y-397842D02*
X-16807855Y-518795D01*
X-16807855Y-518795D02*
X-16686903Y-579271D01*
X-16686903Y-579271D02*
X-16565951Y-579271D01*
X-16142618Y-579271D02*
X-16142618Y267395D01*
X-16142618Y690728D02*
X-16203094Y630252D01*
X-16203094Y630252D02*
X-16142618Y569776D01*
X-16142618Y569776D02*
X-16082141Y630252D01*
X-16082141Y630252D02*
X-16142618Y690728D01*
X-16142618Y690728D02*
X-16142618Y569776D01*
X-15537856Y267395D02*
X-15537856Y-579271D01*
X-15537856Y146443D02*
X-15477379Y206919D01*
X-15477379Y206919D02*
X-15356427Y267395D01*
X-15356427Y267395D02*
X-15174998Y267395D01*
X-15174998Y267395D02*
X-15054046Y206919D01*
X-15054046Y206919D02*
X-14993570Y85966D01*
X-14993570Y85966D02*
X-14993570Y-579271D01*
X-13844522Y267395D02*
X-13844522Y-760699D01*
X-13844522Y-760699D02*
X-13904998Y-881652D01*
X-13904998Y-881652D02*
X-13965474Y-942128D01*
X-13965474Y-942128D02*
X-14086427Y-1002604D01*
X-14086427Y-1002604D02*
X-14267855Y-1002604D01*
X-14267855Y-1002604D02*
X-14388808Y-942128D01*
X-13844522Y-518795D02*
X-13965474Y-579271D01*
X-13965474Y-579271D02*
X-14207379Y-579271D01*
X-14207379Y-579271D02*
X-14328331Y-518795D01*
X-14328331Y-518795D02*
X-14388808Y-458318D01*
X-14388808Y-458318D02*
X-14449284Y-337366D01*
X-14449284Y-337366D02*
X-14449284Y25490D01*
X-14449284Y25490D02*
X-14388808Y146443D01*
X-14388808Y146443D02*
X-14328331Y206919D01*
X-14328331Y206919D02*
X-14207379Y267395D01*
X-14207379Y267395D02*
X-13965474Y267395D01*
X-13965474Y267395D02*
X-13844522Y206919D01*
X-13239760Y-579271D02*
X-13239760Y690728D01*
X-13239760Y85966D02*
X-12514045Y85966D01*
X-12514045Y-579271D02*
X-12514045Y690728D01*
X-11727855Y-579271D02*
X-11848807Y-518795D01*
X-11848807Y-518795D02*
X-11909284Y-458318D01*
X-11909284Y-458318D02*
X-11969760Y-337366D01*
X-11969760Y-337366D02*
X-11969760Y25490D01*
X-11969760Y25490D02*
X-11909284Y146443D01*
X-11909284Y146443D02*
X-11848807Y206919D01*
X-11848807Y206919D02*
X-11727855Y267395D01*
X-11727855Y267395D02*
X-11546426Y267395D01*
X-11546426Y267395D02*
X-11425474Y206919D01*
X-11425474Y206919D02*
X-11364998Y146443D01*
X-11364998Y146443D02*
X-11304522Y25490D01*
X-11304522Y25490D02*
X-11304522Y-337366D01*
X-11304522Y-337366D02*
X-11364998Y-458318D01*
X-11364998Y-458318D02*
X-11425474Y-518795D01*
X-11425474Y-518795D02*
X-11546426Y-579271D01*
X-11546426Y-579271D02*
X-11727855Y-579271D01*
X-10578807Y-579271D02*
X-10699759Y-518795D01*
X-10699759Y-518795D02*
X-10760236Y-397842D01*
X-10760236Y-397842D02*
X-10760236Y690728D01*
X-9611188Y-518795D02*
X-9732140Y-579271D01*
X-9732140Y-579271D02*
X-9974045Y-579271D01*
X-9974045Y-579271D02*
X-10094998Y-518795D01*
X-10094998Y-518795D02*
X-10155474Y-397842D01*
X-10155474Y-397842D02*
X-10155474Y85966D01*
X-10155474Y85966D02*
X-10094998Y206919D01*
X-10094998Y206919D02*
X-9974045Y267395D01*
X-9974045Y267395D02*
X-9732140Y267395D01*
X-9732140Y267395D02*
X-9611188Y206919D01*
X-9611188Y206919D02*
X-9550712Y85966D01*
X-9550712Y85966D02*
X-9550712Y-34985D01*
X-9550712Y-34985D02*
X-10155474Y-155937D01*
X-9308808Y-700223D02*
X-8341188Y-700223D01*
X-8099284Y569776D02*
X-8038808Y630252D01*
X-8038808Y630252D02*
X-7917855Y690728D01*
X-7917855Y690728D02*
X-7615474Y690728D01*
X-7615474Y690728D02*
X-7494522Y630252D01*
X-7494522Y630252D02*
X-7434046Y569776D01*
X-7434046Y569776D02*
X-7373569Y448824D01*
X-7373569Y448824D02*
X-7373569Y327871D01*
X-7373569Y327871D02*
X-7434046Y146443D01*
X-7434046Y146443D02*
X-8159760Y-579271D01*
X-8159760Y-579271D02*
X-7373569Y-579271D01*
X-6829284Y-458318D02*
X-6768807Y-518795D01*
X-6768807Y-518795D02*
X-6829284Y-579271D01*
X-6829284Y-579271D02*
X-6889760Y-518795D01*
X-6889760Y-518795D02*
X-6829284Y-458318D01*
X-6829284Y-458318D02*
X-6829284Y-579271D01*
X-5559283Y-579271D02*
X-6284998Y-579271D01*
X-5922141Y-579271D02*
X-5922141Y690728D01*
X-5922141Y690728D02*
X-6043093Y509300D01*
X-6043093Y509300D02*
X-6164045Y388347D01*
X-6164045Y388347D02*
X-6284998Y327871D01*
X-5014998Y-579271D02*
X-5014998Y267395D01*
X-5014998Y146443D02*
X-4954521Y206919D01*
X-4954521Y206919D02*
X-4833569Y267395D01*
X-4833569Y267395D02*
X-4652140Y267395D01*
X-4652140Y267395D02*
X-4531188Y206919D01*
X-4531188Y206919D02*
X-4470712Y85966D01*
X-4470712Y85966D02*
X-4470712Y-579271D01*
X-4470712Y85966D02*
X-4410236Y206919D01*
X-4410236Y206919D02*
X-4289283Y267395D01*
X-4289283Y267395D02*
X-4107855Y267395D01*
X-4107855Y267395D02*
X-3986902Y206919D01*
X-3986902Y206919D02*
X-3926426Y85966D01*
X-3926426Y85966D02*
X-3926426Y-579271D01*
X-3321665Y-579271D02*
X-3321665Y267395D01*
X-3321665Y146443D02*
X-3261188Y206919D01*
X-3261188Y206919D02*
X-3140236Y267395D01*
X-3140236Y267395D02*
X-2958807Y267395D01*
X-2958807Y267395D02*
X-2837855Y206919D01*
X-2837855Y206919D02*
X-2777379Y85966D01*
X-2777379Y85966D02*
X-2777379Y-579271D01*
X-2777379Y85966D02*
X-2716903Y206919D01*
X-2716903Y206919D02*
X-2595950Y267395D01*
X-2595950Y267395D02*
X-2414522Y267395D01*
X-2414522Y267395D02*
X-2293569Y206919D01*
X-2293569Y206919D02*
X-2233093Y85966D01*
X-2233093Y85966D02*
X-2233093Y-579271D01*
D10*
X-8238095Y-3724819D02*
X-7571429Y-4724819D01*
X-7571429Y-3724819D02*
X-8238095Y-4724819D01*
X-7190476Y-4724819D02*
X-7190476Y-3724819D01*
X-6761905Y-4439104D02*
X-6285715Y-4439104D01*
X-6857143Y-4724819D02*
X-6523810Y-3724819D01*
X-6523810Y-3724819D02*
X-6190477Y-4724819D01*
X-5666667Y-3724819D02*
X-5476191Y-3724819D01*
X-5476191Y-3724819D02*
X-5380953Y-3772438D01*
X-5380953Y-3772438D02*
X-5285715Y-3867676D01*
X-5285715Y-3867676D02*
X-5238096Y-4058152D01*
X-5238096Y-4058152D02*
X-5238096Y-4391485D01*
X-5238096Y-4391485D02*
X-5285715Y-4581961D01*
X-5285715Y-4581961D02*
X-5380953Y-4677200D01*
X-5380953Y-4677200D02*
X-5476191Y-4724819D01*
X-5476191Y-4724819D02*
X-5666667Y-4724819D01*
X-5666667Y-4724819D02*
X-5761905Y-4677200D01*
X-5761905Y-4677200D02*
X-5857143Y-4581961D01*
X-5857143Y-4581961D02*
X-5904762Y-4391485D01*
X-5904762Y-4391485D02*
X-5904762Y-4058152D01*
X-5904762Y-4058152D02*
X-5857143Y-3867676D01*
X-5857143Y-3867676D02*
X-5761905Y-3772438D01*
X-5761905Y-3772438D02*
X-5666667Y-3724819D01*
X-5047620Y-4820057D02*
X-4285715Y-4820057D01*
X-4047619Y-4058152D02*
X-4047619Y-4724819D01*
X-4047619Y-4153390D02*
X-4000000Y-4105771D01*
X-4000000Y-4105771D02*
X-3904762Y-4058152D01*
X-3904762Y-4058152D02*
X-3761905Y-4058152D01*
X-3761905Y-4058152D02*
X-3666667Y-4105771D01*
X-3666667Y-4105771D02*
X-3619048Y-4201009D01*
X-3619048Y-4201009D02*
X-3619048Y-4724819D01*
X-2571429Y-4724819D02*
X-2904762Y-4248628D01*
X-3142857Y-4724819D02*
X-3142857Y-3724819D01*
X-3142857Y-3724819D02*
X-2761905Y-3724819D01*
X-2761905Y-3724819D02*
X-2666667Y-3772438D01*
X-2666667Y-3772438D02*
X-2619048Y-3820057D01*
X-2619048Y-3820057D02*
X-2571429Y-3915295D01*
X-2571429Y-3915295D02*
X-2571429Y-4058152D01*
X-2571429Y-4058152D02*
X-2619048Y-4153390D01*
X-2619048Y-4153390D02*
X-2666667Y-4201009D01*
X-2666667Y-4201009D02*
X-2761905Y-4248628D01*
X-2761905Y-4248628D02*
X-3142857Y-4248628D01*
X-1809524Y-4201009D02*
X-2142857Y-4201009D01*
X-2142857Y-4724819D02*
X-2142857Y-3724819D01*
X-2142857Y-3724819D02*
X-1666667Y-3724819D01*
X-809524Y-3724819D02*
X-1285714Y-3724819D01*
X-1285714Y-3724819D02*
X-1333333Y-4201009D01*
X-1333333Y-4201009D02*
X-1285714Y-4153390D01*
X-1285714Y-4153390D02*
X-1190476Y-4105771D01*
X-1190476Y-4105771D02*
X-952381Y-4105771D01*
X-952381Y-4105771D02*
X-857143Y-4153390D01*
X-857143Y-4153390D02*
X-809524Y-4201009D01*
X-809524Y-4201009D02*
X-761905Y-4296247D01*
X-761905Y-4296247D02*
X-761905Y-4534342D01*
X-761905Y-4534342D02*
X-809524Y-4629580D01*
X-809524Y-4629580D02*
X-857143Y-4677200D01*
X-857143Y-4677200D02*
X-952381Y-4724819D01*
X-952381Y-4724819D02*
X-1190476Y-4724819D01*
X-1190476Y-4724819D02*
X-1285714Y-4677200D01*
X-1285714Y-4677200D02*
X-1333333Y-4629580D01*
X-380952Y-3820057D02*
X-333333Y-3772438D01*
X-333333Y-3772438D02*
X-238095Y-3724819D01*
X-238095Y-3724819D02*
X0Y-3724819D01*
X0Y-3724819D02*
X95237Y-3772438D01*
X95237Y-3772438D02*
X142856Y-3820057D01*
X142856Y-3820057D02*
X190475Y-3915295D01*
X190475Y-3915295D02*
X190475Y-4010533D01*
X190475Y-4010533D02*
X142856Y-4153390D01*
X142856Y-4153390D02*
X-428571Y-4724819D01*
X-428571Y-4724819D02*
X190475Y-4724819D01*
X761904Y-4153390D02*
X666666Y-4105771D01*
X666666Y-4105771D02*
X619047Y-4058152D01*
X619047Y-4058152D02*
X571428Y-3962914D01*
X571428Y-3962914D02*
X571428Y-3915295D01*
X571428Y-3915295D02*
X619047Y-3820057D01*
X619047Y-3820057D02*
X666666Y-3772438D01*
X666666Y-3772438D02*
X761904Y-3724819D01*
X761904Y-3724819D02*
X952380Y-3724819D01*
X952380Y-3724819D02*
X1047618Y-3772438D01*
X1047618Y-3772438D02*
X1095237Y-3820057D01*
X1095237Y-3820057D02*
X1142856Y-3915295D01*
X1142856Y-3915295D02*
X1142856Y-3962914D01*
X1142856Y-3962914D02*
X1095237Y-4058152D01*
X1095237Y-4058152D02*
X1047618Y-4105771D01*
X1047618Y-4105771D02*
X952380Y-4153390D01*
X952380Y-4153390D02*
X761904Y-4153390D01*
X761904Y-4153390D02*
X666666Y-4201009D01*
X666666Y-4201009D02*
X619047Y-4248628D01*
X619047Y-4248628D02*
X571428Y-4343866D01*
X571428Y-4343866D02*
X571428Y-4534342D01*
X571428Y-4534342D02*
X619047Y-4629580D01*
X619047Y-4629580D02*
X666666Y-4677200D01*
X666666Y-4677200D02*
X761904Y-4724819D01*
X761904Y-4724819D02*
X952380Y-4724819D01*
X952380Y-4724819D02*
X1047618Y-4677200D01*
X1047618Y-4677200D02*
X1095237Y-4629580D01*
X1095237Y-4629580D02*
X1142856Y-4534342D01*
X1142856Y-4534342D02*
X1142856Y-4343866D01*
X1142856Y-4343866D02*
X1095237Y-4248628D01*
X1095237Y-4248628D02*
X1047618Y-4201009D01*
X1047618Y-4201009D02*
X952380Y-4153390D01*
X1999999Y-4058152D02*
X1999999Y-4724819D01*
X1761904Y-3677200D02*
X1523809Y-4391485D01*
X1523809Y-4391485D02*
X2142856Y-4391485D01*
X2714285Y-3724819D02*
X2809523Y-3724819D01*
X2809523Y-3724819D02*
X2904761Y-3772438D01*
X2904761Y-3772438D02*
X2952380Y-3820057D01*
X2952380Y-3820057D02*
X2999999Y-3915295D01*
X2999999Y-3915295D02*
X3047618Y-4105771D01*
X3047618Y-4105771D02*
X3047618Y-4343866D01*
X3047618Y-4343866D02*
X2999999Y-4534342D01*
X2999999Y-4534342D02*
X2952380Y-4629580D01*
X2952380Y-4629580D02*
X2904761Y-4677200D01*
X2904761Y-4677200D02*
X2809523Y-4724819D01*
X2809523Y-4724819D02*
X2714285Y-4724819D01*
X2714285Y-4724819D02*
X2619047Y-4677200D01*
X2619047Y-4677200D02*
X2571428Y-4629580D01*
X2571428Y-4629580D02*
X2523809Y-4534342D01*
X2523809Y-4534342D02*
X2476190Y-4343866D01*
X2476190Y-4343866D02*
X2476190Y-4105771D01*
X2476190Y-4105771D02*
X2523809Y-3915295D01*
X2523809Y-3915295D02*
X2571428Y-3820057D01*
X2571428Y-3820057D02*
X2619047Y-3772438D01*
X2619047Y-3772438D02*
X2714285Y-3724819D01*
X3238095Y-4820057D02*
X3999999Y-4820057D01*
X4190476Y-4677200D02*
X4333333Y-4724819D01*
X4333333Y-4724819D02*
X4571428Y-4724819D01*
X4571428Y-4724819D02*
X4666666Y-4677200D01*
X4666666Y-4677200D02*
X4714285Y-4629580D01*
X4714285Y-4629580D02*
X4761904Y-4534342D01*
X4761904Y-4534342D02*
X4761904Y-4439104D01*
X4761904Y-4439104D02*
X4714285Y-4343866D01*
X4714285Y-4343866D02*
X4666666Y-4296247D01*
X4666666Y-4296247D02*
X4571428Y-4248628D01*
X4571428Y-4248628D02*
X4380952Y-4201009D01*
X4380952Y-4201009D02*
X4285714Y-4153390D01*
X4285714Y-4153390D02*
X4238095Y-4105771D01*
X4238095Y-4105771D02*
X4190476Y-4010533D01*
X4190476Y-4010533D02*
X4190476Y-3915295D01*
X4190476Y-3915295D02*
X4238095Y-3820057D01*
X4238095Y-3820057D02*
X4285714Y-3772438D01*
X4285714Y-3772438D02*
X4380952Y-3724819D01*
X4380952Y-3724819D02*
X4619047Y-3724819D01*
X4619047Y-3724819D02*
X4761904Y-3772438D01*
X5571428Y-4677200D02*
X5476190Y-4724819D01*
X5476190Y-4724819D02*
X5285714Y-4724819D01*
X5285714Y-4724819D02*
X5190476Y-4677200D01*
X5190476Y-4677200D02*
X5142857Y-4581961D01*
X5142857Y-4581961D02*
X5142857Y-4201009D01*
X5142857Y-4201009D02*
X5190476Y-4105771D01*
X5190476Y-4105771D02*
X5285714Y-4058152D01*
X5285714Y-4058152D02*
X5476190Y-4058152D01*
X5476190Y-4058152D02*
X5571428Y-4105771D01*
X5571428Y-4105771D02*
X5619047Y-4201009D01*
X5619047Y-4201009D02*
X5619047Y-4296247D01*
X5619047Y-4296247D02*
X5142857Y-4391485D01*
X6047619Y-4058152D02*
X6047619Y-4724819D01*
X6047619Y-4153390D02*
X6095238Y-4105771D01*
X6095238Y-4105771D02*
X6190476Y-4058152D01*
X6190476Y-4058152D02*
X6333333Y-4058152D01*
X6333333Y-4058152D02*
X6428571Y-4105771D01*
X6428571Y-4105771D02*
X6476190Y-4201009D01*
X6476190Y-4201009D02*
X6476190Y-4724819D01*
X6904762Y-4677200D02*
X7000000Y-4724819D01*
X7000000Y-4724819D02*
X7190476Y-4724819D01*
X7190476Y-4724819D02*
X7285714Y-4677200D01*
X7285714Y-4677200D02*
X7333333Y-4581961D01*
X7333333Y-4581961D02*
X7333333Y-4534342D01*
X7333333Y-4534342D02*
X7285714Y-4439104D01*
X7285714Y-4439104D02*
X7190476Y-4391485D01*
X7190476Y-4391485D02*
X7047619Y-4391485D01*
X7047619Y-4391485D02*
X6952381Y-4343866D01*
X6952381Y-4343866D02*
X6904762Y-4248628D01*
X6904762Y-4248628D02*
X6904762Y-4201009D01*
X6904762Y-4201009D02*
X6952381Y-4105771D01*
X6952381Y-4105771D02*
X7047619Y-4058152D01*
X7047619Y-4058152D02*
X7190476Y-4058152D01*
X7190476Y-4058152D02*
X7285714Y-4105771D01*
X8142857Y-4677200D02*
X8047619Y-4724819D01*
X8047619Y-4724819D02*
X7857143Y-4724819D01*
X7857143Y-4724819D02*
X7761905Y-4677200D01*
X7761905Y-4677200D02*
X7714286Y-4581961D01*
X7714286Y-4581961D02*
X7714286Y-4201009D01*
X7714286Y-4201009D02*
X7761905Y-4105771D01*
X7761905Y-4105771D02*
X7857143Y-4058152D01*
X7857143Y-4058152D02*
X8047619Y-4058152D01*
X8047619Y-4058152D02*
X8142857Y-4105771D01*
X8142857Y-4105771D02*
X8190476Y-4201009D01*
X8190476Y-4201009D02*
X8190476Y-4296247D01*
X8190476Y-4296247D02*
X7714286Y-4391485D01*
%TO.C,J1*%
D12*
X-9950000Y9350000D02*
X-9950000Y1750000D01*
X-9950000Y1750000D02*
X-4050000Y1750000D01*
X-9250000Y9350000D02*
X-9950000Y9350000D01*
X-9250000Y7750000D02*
X-9250000Y9350000D01*
X-8500000Y6625000D02*
X-7500000Y6625000D01*
X-8000000Y7125000D02*
X-8500000Y6625000D01*
X-7500000Y6625000D02*
X-8000000Y7125000D01*
X-4750000Y9350000D02*
X-4750000Y7750000D01*
X-4750000Y7750000D02*
X-9250000Y7750000D01*
X-4050000Y9350000D02*
X-4750000Y9350000D01*
X-4050000Y1750000D02*
X-4050000Y9350000D01*
%TO.C,SW1*%
X3500000Y9800000D02*
X3500000Y6200000D01*
X3500000Y9800000D02*
X12500000Y9800000D01*
X5200000Y5900000D02*
X5200000Y6200000D01*
X5800000Y6200000D02*
X5800000Y5900000D01*
X5800000Y5900000D02*
X5200000Y5900000D01*
X6000000Y4200000D02*
X6000000Y6200000D01*
X7500000Y6200000D02*
X7500000Y4200000D01*
X7500000Y4200000D02*
X6000000Y4200000D01*
X7700000Y5900000D02*
X7700000Y6200000D01*
X8300000Y6200000D02*
X8300000Y5900000D01*
X8300000Y5900000D02*
X7700000Y5900000D01*
X10200000Y6200000D02*
X10200000Y5900000D01*
X10200000Y5900000D02*
X10800000Y5900000D01*
X10800000Y5900000D02*
X10800000Y6200000D01*
X12500000Y9800000D02*
X12500000Y6200000D01*
X12500000Y6200000D02*
X3500000Y6200000D01*
%TO.C,U1*%
X-8750000Y7500000D02*
X8750000Y7500000D01*
X8750000Y-11000000D01*
X-8750000Y-11000000D01*
X-8750000Y7500000D01*
%TD*%
M02*
