%TF.GenerationSoftware,KiCad,Pcbnew,10.0.4*%
%TF.CreationDate,2026-07-24T19:44:11+02:00*%
%TF.ProjectId,PulseWristTrack,50756c73-6557-4726-9973-74547261636b,rev?*%
%TF.SameCoordinates,Original*%
%TF.FileFunction,Copper,L1,Top*%
%TF.FilePolarity,Positive*%
%FSLAX46Y46*%
G04 Gerber Fmt 4.6, Leading zero omitted, Abs format (unit mm)*
G04 Created by KiCad (PCBNEW 10.0.4) date 2026-07-24 19:44:11*
%MOMM*%
%LPD*%
G01*
G04 APERTURE LIST*
G04 Aperture macros list*
%AMRoundRect*
0 Rectangle with rounded corners*
0 $1 Rounding radius*
0 $2 $3 $4 $5 $6 $7 $8 $9 X,Y pos of 4 corners*
0 Add a 4 corners polygon primitive as box body*
4,1,4,$2,$3,$4,$5,$6,$7,$8,$9,$2,$3,0*
0 Add four circle primitives for the rounded corners*
1,1,$1+$1,$2,$3*
1,1,$1+$1,$4,$5*
1,1,$1+$1,$6,$7*
1,1,$1+$1,$8,$9*
0 Add four rect primitives between the rounded corners*
20,1,$1+$1,$2,$3,$4,$5,0*
20,1,$1+$1,$4,$5,$6,$7,0*
20,1,$1+$1,$6,$7,$8,$9,0*
20,1,$1+$1,$8,$9,$2,$3,0*%
G04 Aperture macros list end*
%TA.AperFunction,ComponentPad*%
%ADD10RoundRect,0.250000X-0.350000X-0.625000X0.350000X-0.625000X0.350000X0.625000X-0.350000X0.625000X0*%
%TD*%
%TA.AperFunction,ComponentPad*%
%ADD11O,1.200000X1.750000*%
%TD*%
%TA.AperFunction,SMDPad,CuDef*%
%ADD12RoundRect,0.250000X-0.375000X-1.000000X0.375000X-1.000000X0.375000X1.000000X-0.375000X1.000000X0*%
%TD*%
%TA.AperFunction,SMDPad,CuDef*%
%ADD13RoundRect,0.300000X-0.500000X-0.300000X0.500000X-0.300000X0.500000X0.300000X-0.500000X0.300000X0*%
%TD*%
%TA.AperFunction,ViaPad*%
%ADD14C,0.400000*%
%TD*%
%TA.AperFunction,ViaPad*%
%ADD15C,0.600000*%
%TD*%
%TA.AperFunction,Conductor*%
%ADD16C,0.400000*%
%TD*%
G04 APERTURE END LIST*
D10*
%TO.P,J1,1*%
%TO.N,BAT+*%
X-8000000Y8000000D03*
D11*
%TO.P,J1,2*%
%TO.N,GND*%
X-6000000Y8000000D03*
%TD*%
D12*
%TO.P,SW1,1*%
%TO.N,BAT_SW*%
X5500000Y10750000D03*
%TO.P,SW1,2*%
%TO.N,BAT+*%
X8000000Y10750000D03*
%TO.P,SW1,3*%
%TO.N,N/C*%
X10500000Y10750000D03*
%TD*%
D13*
%TO.P,U1,3V3*%
%TO.N,+3V3*%
X-7620000Y810000D03*
%TO.P,U1,5V*%
%TO.N,N/C*%
X7620000Y810000D03*
%TO.P,U1,BAT+*%
%TO.N,BAT_SW*%
X-7620000Y-4270000D03*
%TO.P,U1,BAT-*%
%TO.N,GND*%
X-7620000Y-6810000D03*
%TO.P,U1,D3*%
%TO.N,INT*%
X7620000Y-1730000D03*
%TO.P,U1,D4*%
%TO.N,SDA_3V3*%
X7620000Y-4270000D03*
%TO.P,U1,D5*%
%TO.N,SCL_3V3*%
X7620000Y-6810000D03*
%TO.P,U1,GND*%
%TO.N,GND*%
X-7620000Y-1730000D03*
%TD*%
D14*
%TO.N,GND*%
X-100000Y-1000000D03*
D15*
X-9000000Y2950000D03*
X400000Y1000000D03*
X-7620000Y-6810000D03*
X-7620000Y-1730000D03*
X2950000Y7000000D03*
X-3450000Y8000000D03*
X9000000Y2950000D03*
X-3862500Y5000000D03*
%TO.N,+3V3*%
X-7620000Y810000D03*
X-1200000Y1000000D03*
X-825000Y-9500000D03*
X1050000Y7000000D03*
X-9000000Y1050000D03*
X6825000Y-8000000D03*
X2175000Y-8000000D03*
X-3862500Y5950000D03*
X-3862500Y4050000D03*
X-800000Y-800000D03*
%TO.N,INT*%
X549700Y-6119600D03*
X1619800Y-1100D03*
%TO.N,SDA_3V3*%
X3376300Y-9111200D03*
%TO.N,SCL_3V3*%
X5497800Y-5606100D03*
%TO.N,SDA_1V8*%
X-5068700Y-5176400D03*
X-2785500Y2571200D03*
%TD*%
%TO.N,BAT+*%
D16*
X-4997200Y6593800D02*
X-6593800Y6593800D01*
X-2659700Y6164900D02*
X-3253300Y6758500D01*
X4525700Y6164900D02*
X-2659700Y6164900D01*
X8000000Y9639200D02*
X4525700Y6164900D01*
X-4832500Y6758500D02*
X-4997200Y6593800D01*
X8000000Y10750000D02*
X8000000Y9639200D01*
X-6593800Y6593800D02*
X-8000000Y8000000D01*
X-3253300Y6758500D02*
X-4832500Y6758500D01*
%TO.N,BAT_SW*%
X-9804600Y8279300D02*
X-9804600Y-2085400D01*
X5500000Y10750000D02*
X-7333900Y10750000D01*
X-9804600Y-2085400D02*
X-7620000Y-4270000D01*
X-7333900Y10750000D02*
X-9804600Y8279300D01*
%TO.N,INT*%
X549700Y-6119600D02*
X549700Y-6394900D01*
X549700Y-1071200D02*
X1619800Y-1100D01*
X549700Y-6394900D02*
X549700Y-6119600D01*
X549700Y-6119600D02*
X549700Y-1071200D01*
X7620000Y-1730000D02*
X3348700Y-1730000D01*
X3348700Y-1730000D02*
X1619800Y-1100D01*
%TO.N,SDA_3V3*%
X3376300Y-6504600D02*
X3376300Y-9111200D01*
X5610900Y-4270000D02*
X3376300Y-6504600D01*
X7620000Y-4270000D02*
X5610900Y-4270000D01*
%TO.N,SCL_3V3*%
X7620000Y-6810000D02*
X6701700Y-6810000D01*
X6701700Y-6810000D02*
X5497800Y-5606100D01*
%TO.N,SDA_1V8*%
X-2785500Y-2893200D02*
X-2785500Y2571200D01*
X-5498400Y-5606100D02*
X-2785500Y-2893200D01*
X-5498400Y-5606100D02*
X-5068700Y-5176400D01*
%TD*%
M02*
