%TF.GenerationSoftware,KiCad,Pcbnew,10.0.4*%
%TF.CreationDate,2026-07-24T19:44:11+02:00*%
%TF.ProjectId,PulseWristTrack,50756c73-6557-4726-9973-74547261636b,rev?*%
%TF.SameCoordinates,Original*%
%TF.FileFunction,Legend,Bot*%
%TF.FilePolarity,Positive*%
%FSLAX46Y46*%
G04 Gerber Fmt 4.6, Leading zero omitted, Abs format (unit mm)*
G04 Created by KiCad (PCBNEW 10.0.4) date 2026-07-24 19:44:11*
%MOMM*%
%LPD*%
G01*
G04 APERTURE LIST*
%ADD10C,0.150000*%
%ADD11C,0.120000*%
G04 APERTURE END LIST*
D10*
X-4238095Y7945180D02*
X-4238095Y7135657D01*
X-4238095Y7135657D02*
X-4285714Y7040419D01*
X-4285714Y7040419D02*
X-4333333Y6992800D01*
X-4333333Y6992800D02*
X-4428571Y6945180D01*
X-4428571Y6945180D02*
X-4619047Y6945180D01*
X-4619047Y6945180D02*
X-4714285Y6992800D01*
X-4714285Y6992800D02*
X-4761904Y7040419D01*
X-4761904Y7040419D02*
X-4809523Y7135657D01*
X-4809523Y7135657D02*
X-4809523Y7945180D01*
X-5190476Y7945180D02*
X-5809523Y7945180D01*
X-5809523Y7945180D02*
X-5476190Y7564228D01*
X-5476190Y7564228D02*
X-5619047Y7564228D01*
X-5619047Y7564228D02*
X-5714285Y7516609D01*
X-5714285Y7516609D02*
X-5761904Y7468990D01*
X-5761904Y7468990D02*
X-5809523Y7373752D01*
X-5809523Y7373752D02*
X-5809523Y7135657D01*
X-5809523Y7135657D02*
X-5761904Y7040419D01*
X-5761904Y7040419D02*
X-5714285Y6992800D01*
X-5714285Y6992800D02*
X-5619047Y6945180D01*
X-5619047Y6945180D02*
X-5333333Y6945180D01*
X-5333333Y6945180D02*
X-5238095Y6992800D01*
X-5238095Y6992800D02*
X-5190476Y7040419D01*
X-2833333Y-7024819D02*
X-2500000Y-6548628D01*
X-2261905Y-7024819D02*
X-2261905Y-6024819D01*
X-2261905Y-6024819D02*
X-2642857Y-6024819D01*
X-2642857Y-6024819D02*
X-2738095Y-6072438D01*
X-2738095Y-6072438D02*
X-2785714Y-6120057D01*
X-2785714Y-6120057D02*
X-2833333Y-6215295D01*
X-2833333Y-6215295D02*
X-2833333Y-6358152D01*
X-2833333Y-6358152D02*
X-2785714Y-6453390D01*
X-2785714Y-6453390D02*
X-2738095Y-6501009D01*
X-2738095Y-6501009D02*
X-2642857Y-6548628D01*
X-2642857Y-6548628D02*
X-2261905Y-6548628D01*
X-3214286Y-6120057D02*
X-3261905Y-6072438D01*
X-3261905Y-6072438D02*
X-3357143Y-6024819D01*
X-3357143Y-6024819D02*
X-3595238Y-6024819D01*
X-3595238Y-6024819D02*
X-3690476Y-6072438D01*
X-3690476Y-6072438D02*
X-3738095Y-6120057D01*
X-3738095Y-6120057D02*
X-3785714Y-6215295D01*
X-3785714Y-6215295D02*
X-3785714Y-6310533D01*
X-3785714Y-6310533D02*
X-3738095Y-6453390D01*
X-3738095Y-6453390D02*
X-3166667Y-7024819D01*
X-3166667Y-7024819D02*
X-3785714Y-7024819D01*
X3166666Y-7024819D02*
X3499999Y-6548628D01*
X3738094Y-7024819D02*
X3738094Y-6024819D01*
X3738094Y-6024819D02*
X3357142Y-6024819D01*
X3357142Y-6024819D02*
X3261904Y-6072438D01*
X3261904Y-6072438D02*
X3214285Y-6120057D01*
X3214285Y-6120057D02*
X3166666Y-6215295D01*
X3166666Y-6215295D02*
X3166666Y-6358152D01*
X3166666Y-6358152D02*
X3214285Y-6453390D01*
X3214285Y-6453390D02*
X3261904Y-6501009D01*
X3261904Y-6501009D02*
X3357142Y-6548628D01*
X3357142Y-6548628D02*
X3738094Y-6548628D01*
X2833332Y-6024819D02*
X2214285Y-6024819D01*
X2214285Y-6024819D02*
X2547618Y-6405771D01*
X2547618Y-6405771D02*
X2404761Y-6405771D01*
X2404761Y-6405771D02*
X2309523Y-6453390D01*
X2309523Y-6453390D02*
X2261904Y-6501009D01*
X2261904Y-6501009D02*
X2214285Y-6596247D01*
X2214285Y-6596247D02*
X2214285Y-6834342D01*
X2214285Y-6834342D02*
X2261904Y-6929580D01*
X2261904Y-6929580D02*
X2309523Y-6977200D01*
X2309523Y-6977200D02*
X2404761Y-7024819D01*
X2404761Y-7024819D02*
X2690475Y-7024819D01*
X2690475Y-7024819D02*
X2785713Y-6977200D01*
X2785713Y-6977200D02*
X2833332Y-6929580D01*
X-5833333Y-9884819D02*
X-5500000Y-9408628D01*
X-5261905Y-9884819D02*
X-5261905Y-8884819D01*
X-5261905Y-8884819D02*
X-5642857Y-8884819D01*
X-5642857Y-8884819D02*
X-5738095Y-8932438D01*
X-5738095Y-8932438D02*
X-5785714Y-8980057D01*
X-5785714Y-8980057D02*
X-5833333Y-9075295D01*
X-5833333Y-9075295D02*
X-5833333Y-9218152D01*
X-5833333Y-9218152D02*
X-5785714Y-9313390D01*
X-5785714Y-9313390D02*
X-5738095Y-9361009D01*
X-5738095Y-9361009D02*
X-5642857Y-9408628D01*
X-5642857Y-9408628D02*
X-5261905Y-9408628D01*
X-6785714Y-9884819D02*
X-6214286Y-9884819D01*
X-6500000Y-9884819D02*
X-6500000Y-8884819D01*
X-6500000Y-8884819D02*
X-6404762Y-9027676D01*
X-6404762Y-9027676D02*
X-6309524Y-9122914D01*
X-6309524Y-9122914D02*
X-6214286Y-9170533D01*
X-2333333Y9320419D02*
X-2285714Y9272800D01*
X-2285714Y9272800D02*
X-2142857Y9225180D01*
X-2142857Y9225180D02*
X-2047619Y9225180D01*
X-2047619Y9225180D02*
X-1904762Y9272800D01*
X-1904762Y9272800D02*
X-1809524Y9368038D01*
X-1809524Y9368038D02*
X-1761905Y9463276D01*
X-1761905Y9463276D02*
X-1714286Y9653752D01*
X-1714286Y9653752D02*
X-1714286Y9796609D01*
X-1714286Y9796609D02*
X-1761905Y9987085D01*
X-1761905Y9987085D02*
X-1809524Y10082323D01*
X-1809524Y10082323D02*
X-1904762Y10177561D01*
X-1904762Y10177561D02*
X-2047619Y10225180D01*
X-2047619Y10225180D02*
X-2142857Y10225180D01*
X-2142857Y10225180D02*
X-2285714Y10177561D01*
X-2285714Y10177561D02*
X-2333333Y10129942D01*
X-2714286Y10129942D02*
X-2761905Y10177561D01*
X-2761905Y10177561D02*
X-2857143Y10225180D01*
X-2857143Y10225180D02*
X-3095238Y10225180D01*
X-3095238Y10225180D02*
X-3190476Y10177561D01*
X-3190476Y10177561D02*
X-3238095Y10129942D01*
X-3238095Y10129942D02*
X-3285714Y10034704D01*
X-3285714Y10034704D02*
X-3285714Y9939466D01*
X-3285714Y9939466D02*
X-3238095Y9796609D01*
X-3238095Y9796609D02*
X-2666667Y9225180D01*
X-2666667Y9225180D02*
X-3285714Y9225180D01*
X-5904761Y-1150057D02*
X-5809523Y-1102438D01*
X-5809523Y-1102438D02*
X-5714285Y-1007200D01*
X-5714285Y-1007200D02*
X-5571428Y-864342D01*
X-5571428Y-864342D02*
X-5476190Y-816723D01*
X-5476190Y-816723D02*
X-5380952Y-816723D01*
X-5428571Y-1054819D02*
X-5333333Y-1007200D01*
X-5333333Y-1007200D02*
X-5238095Y-911961D01*
X-5238095Y-911961D02*
X-5190476Y-721485D01*
X-5190476Y-721485D02*
X-5190476Y-388152D01*
X-5190476Y-388152D02*
X-5238095Y-197676D01*
X-5238095Y-197676D02*
X-5333333Y-102438D01*
X-5333333Y-102438D02*
X-5428571Y-54819D01*
X-5428571Y-54819D02*
X-5619047Y-54819D01*
X-5619047Y-54819D02*
X-5714285Y-102438D01*
X-5714285Y-102438D02*
X-5809523Y-197676D01*
X-5809523Y-197676D02*
X-5857142Y-388152D01*
X-5857142Y-388152D02*
X-5857142Y-721485D01*
X-5857142Y-721485D02*
X-5809523Y-911961D01*
X-5809523Y-911961D02*
X-5714285Y-1007200D01*
X-5714285Y-1007200D02*
X-5619047Y-1054819D01*
X-5619047Y-1054819D02*
X-5428571Y-1054819D01*
X-6809523Y-1054819D02*
X-6238095Y-1054819D01*
X-6523809Y-1054819D02*
X-6523809Y-54819D01*
X-6523809Y-54819D02*
X-6428571Y-197676D01*
X-6428571Y-197676D02*
X-6333333Y-292914D01*
X-6333333Y-292914D02*
X-6238095Y-340533D01*
X-6960419Y2166666D02*
X-6912800Y2214285D01*
X-6912800Y2214285D02*
X-6865180Y2357142D01*
X-6865180Y2357142D02*
X-6865180Y2452380D01*
X-6865180Y2452380D02*
X-6912800Y2595237D01*
X-6912800Y2595237D02*
X-7008038Y2690475D01*
X-7008038Y2690475D02*
X-7103276Y2738094D01*
X-7103276Y2738094D02*
X-7293752Y2785713D01*
X-7293752Y2785713D02*
X-7436609Y2785713D01*
X-7436609Y2785713D02*
X-7627085Y2738094D01*
X-7627085Y2738094D02*
X-7722323Y2690475D01*
X-7722323Y2690475D02*
X-7817561Y2595237D01*
X-7817561Y2595237D02*
X-7865180Y2452380D01*
X-7865180Y2452380D02*
X-7865180Y2357142D01*
X-7865180Y2357142D02*
X-7817561Y2214285D01*
X-7817561Y2214285D02*
X-7769942Y2166666D01*
X-6865180Y1214285D02*
X-6865180Y1785713D01*
X-6865180Y1499999D02*
X-7865180Y1499999D01*
X-7865180Y1499999D02*
X-7722323Y1595237D01*
X-7722323Y1595237D02*
X-7627085Y1690475D01*
X-7627085Y1690475D02*
X-7579466Y1785713D01*
X761904Y1815180D02*
X761904Y1005657D01*
X761904Y1005657D02*
X714285Y910419D01*
X714285Y910419D02*
X666666Y862800D01*
X666666Y862800D02*
X571428Y815180D01*
X571428Y815180D02*
X380952Y815180D01*
X380952Y815180D02*
X285714Y862800D01*
X285714Y862800D02*
X238095Y910419D01*
X238095Y910419D02*
X190476Y1005657D01*
X190476Y1005657D02*
X190476Y1815180D01*
X-238095Y1719942D02*
X-285714Y1767561D01*
X-285714Y1767561D02*
X-380952Y1815180D01*
X-380952Y1815180D02*
X-619047Y1815180D01*
X-619047Y1815180D02*
X-714285Y1767561D01*
X-714285Y1767561D02*
X-761904Y1719942D01*
X-761904Y1719942D02*
X-809523Y1624704D01*
X-809523Y1624704D02*
X-809523Y1529466D01*
X-809523Y1529466D02*
X-761904Y1386609D01*
X-761904Y1386609D02*
X-190476Y815180D01*
X-190476Y815180D02*
X-809523Y815180D01*
X2166666Y4960419D02*
X2214285Y4912800D01*
X2214285Y4912800D02*
X2357142Y4865180D01*
X2357142Y4865180D02*
X2452380Y4865180D01*
X2452380Y4865180D02*
X2595237Y4912800D01*
X2595237Y4912800D02*
X2690475Y5008038D01*
X2690475Y5008038D02*
X2738094Y5103276D01*
X2738094Y5103276D02*
X2785713Y5293752D01*
X2785713Y5293752D02*
X2785713Y5436609D01*
X2785713Y5436609D02*
X2738094Y5627085D01*
X2738094Y5627085D02*
X2690475Y5722323D01*
X2690475Y5722323D02*
X2595237Y5817561D01*
X2595237Y5817561D02*
X2452380Y5865180D01*
X2452380Y5865180D02*
X2357142Y5865180D01*
X2357142Y5865180D02*
X2214285Y5817561D01*
X2214285Y5817561D02*
X2166666Y5769942D01*
X1833332Y5865180D02*
X1214285Y5865180D01*
X1214285Y5865180D02*
X1547618Y5484228D01*
X1547618Y5484228D02*
X1404761Y5484228D01*
X1404761Y5484228D02*
X1309523Y5436609D01*
X1309523Y5436609D02*
X1261904Y5388990D01*
X1261904Y5388990D02*
X1214285Y5293752D01*
X1214285Y5293752D02*
X1214285Y5055657D01*
X1214285Y5055657D02*
X1261904Y4960419D01*
X1261904Y4960419D02*
X1309523Y4912800D01*
X1309523Y4912800D02*
X1404761Y4865180D01*
X1404761Y4865180D02*
X1690475Y4865180D01*
X1690475Y4865180D02*
X1785713Y4912800D01*
X1785713Y4912800D02*
X1833332Y4960419D01*
X6095238Y-1150057D02*
X6190476Y-1102438D01*
X6190476Y-1102438D02*
X6285714Y-1007200D01*
X6285714Y-1007200D02*
X6428571Y-864342D01*
X6428571Y-864342D02*
X6523809Y-816723D01*
X6523809Y-816723D02*
X6619047Y-816723D01*
X6571428Y-1054819D02*
X6666666Y-1007200D01*
X6666666Y-1007200D02*
X6761904Y-911961D01*
X6761904Y-911961D02*
X6809523Y-721485D01*
X6809523Y-721485D02*
X6809523Y-388152D01*
X6809523Y-388152D02*
X6761904Y-197676D01*
X6761904Y-197676D02*
X6666666Y-102438D01*
X6666666Y-102438D02*
X6571428Y-54819D01*
X6571428Y-54819D02*
X6380952Y-54819D01*
X6380952Y-54819D02*
X6285714Y-102438D01*
X6285714Y-102438D02*
X6190476Y-197676D01*
X6190476Y-197676D02*
X6142857Y-388152D01*
X6142857Y-388152D02*
X6142857Y-721485D01*
X6142857Y-721485D02*
X6190476Y-911961D01*
X6190476Y-911961D02*
X6285714Y-1007200D01*
X6285714Y-1007200D02*
X6380952Y-1054819D01*
X6380952Y-1054819D02*
X6571428Y-1054819D01*
X5761904Y-150057D02*
X5714285Y-102438D01*
X5714285Y-102438D02*
X5619047Y-54819D01*
X5619047Y-54819D02*
X5380952Y-54819D01*
X5380952Y-54819D02*
X5285714Y-102438D01*
X5285714Y-102438D02*
X5238095Y-150057D01*
X5238095Y-150057D02*
X5190476Y-245295D01*
X5190476Y-245295D02*
X5190476Y-340533D01*
X5190476Y-340533D02*
X5238095Y-483390D01*
X5238095Y-483390D02*
X5809523Y-1054819D01*
X5809523Y-1054819D02*
X5190476Y-1054819D01*
X11039580Y2166666D02*
X11087200Y2214285D01*
X11087200Y2214285D02*
X11134819Y2357142D01*
X11134819Y2357142D02*
X11134819Y2452380D01*
X11134819Y2452380D02*
X11087200Y2595237D01*
X11087200Y2595237D02*
X10991961Y2690475D01*
X10991961Y2690475D02*
X10896723Y2738094D01*
X10896723Y2738094D02*
X10706247Y2785713D01*
X10706247Y2785713D02*
X10563390Y2785713D01*
X10563390Y2785713D02*
X10372914Y2738094D01*
X10372914Y2738094D02*
X10277676Y2690475D01*
X10277676Y2690475D02*
X10182438Y2595237D01*
X10182438Y2595237D02*
X10134819Y2452380D01*
X10134819Y2452380D02*
X10134819Y2357142D01*
X10134819Y2357142D02*
X10182438Y2214285D01*
X10182438Y2214285D02*
X10230057Y2166666D01*
X10468152Y1309523D02*
X11134819Y1309523D01*
X10087200Y1547618D02*
X10801485Y1785713D01*
X10801485Y1785713D02*
X10801485Y1166666D01*
X6166666Y-9884819D02*
X6499999Y-9408628D01*
X6738094Y-9884819D02*
X6738094Y-8884819D01*
X6738094Y-8884819D02*
X6357142Y-8884819D01*
X6357142Y-8884819D02*
X6261904Y-8932438D01*
X6261904Y-8932438D02*
X6214285Y-8980057D01*
X6214285Y-8980057D02*
X6166666Y-9075295D01*
X6166666Y-9075295D02*
X6166666Y-9218152D01*
X6166666Y-9218152D02*
X6214285Y-9313390D01*
X6214285Y-9313390D02*
X6261904Y-9361009D01*
X6261904Y-9361009D02*
X6357142Y-9408628D01*
X6357142Y-9408628D02*
X6738094Y-9408628D01*
X5309523Y-9218152D02*
X5309523Y-9884819D01*
X5547618Y-8837200D02*
X5785713Y-9551485D01*
X5785713Y-9551485D02*
X5166666Y-9551485D01*
X166666Y-8524819D02*
X499999Y-8048628D01*
X738094Y-8524819D02*
X738094Y-7524819D01*
X738094Y-7524819D02*
X357142Y-7524819D01*
X357142Y-7524819D02*
X261904Y-7572438D01*
X261904Y-7572438D02*
X214285Y-7620057D01*
X214285Y-7620057D02*
X166666Y-7715295D01*
X166666Y-7715295D02*
X166666Y-7858152D01*
X166666Y-7858152D02*
X214285Y-7953390D01*
X214285Y-7953390D02*
X261904Y-8001009D01*
X261904Y-8001009D02*
X357142Y-8048628D01*
X357142Y-8048628D02*
X738094Y-8048628D01*
X-738095Y-7524819D02*
X-261905Y-7524819D01*
X-261905Y-7524819D02*
X-214286Y-8001009D01*
X-214286Y-8001009D02*
X-261905Y-7953390D01*
X-261905Y-7953390D02*
X-357143Y-7905771D01*
X-357143Y-7905771D02*
X-595238Y-7905771D01*
X-595238Y-7905771D02*
X-690476Y-7953390D01*
X-690476Y-7953390D02*
X-738095Y-8001009D01*
X-738095Y-8001009D02*
X-785714Y-8096247D01*
X-785714Y-8096247D02*
X-785714Y-8334342D01*
X-785714Y-8334342D02*
X-738095Y-8429580D01*
X-738095Y-8429580D02*
X-690476Y-8477200D01*
X-690476Y-8477200D02*
X-595238Y-8524819D01*
X-595238Y-8524819D02*
X-357143Y-8524819D01*
X-357143Y-8524819D02*
X-261905Y-8477200D01*
X-261905Y-8477200D02*
X-214286Y-8429580D01*
%TO.C,U3*%
D11*
X-5910000Y6560000D02*
X-5910000Y6510000D01*
X-5910000Y5390000D02*
X-5910000Y4610000D01*
X-5910000Y3490000D02*
X-5910000Y3440000D01*
X-5910000Y3440000D02*
X-4090000Y3440000D01*
X-4090000Y6560000D02*
X-5910000Y6560000D01*
X-4090000Y6510000D02*
X-4090000Y6560000D01*
X-4090000Y3440000D02*
X-4090000Y3490000D01*
X-3550000Y6510000D02*
X-3310000Y6840000D01*
X-3790000Y6840000D01*
X-3550000Y6510000D01*
G36*
X-3550000Y6510000D02*
G01*
X-3790000Y6840000D01*
X-3310000Y6840000D01*
X-3550000Y6510000D01*
G37*
%TO.C,R2*%
X-2762742Y-7477500D02*
X-3237258Y-7477500D01*
X-2762742Y-8522500D02*
X-3237258Y-8522500D01*
%TO.C,R3*%
X3237258Y-7477500D02*
X2762742Y-7477500D01*
X3237258Y-8522500D02*
X2762742Y-8522500D01*
%TO.C,R1*%
X-6237258Y-7477500D02*
X-5762742Y-7477500D01*
X-6237258Y-8522500D02*
X-5762742Y-8522500D01*
%TO.C,C2*%
X-2238748Y8735000D02*
X-2761252Y8735000D01*
X-2238748Y7265000D02*
X-2761252Y7265000D01*
%TO.C,Q1*%
X-6760000Y-1440000D02*
X-6760000Y-2440000D01*
X-6760000Y-3560000D02*
X-6760000Y-4560000D01*
X-6760000Y-4560000D02*
X-5240000Y-4560000D01*
X-5240000Y-1440000D02*
X-6760000Y-1440000D01*
X-5240000Y-1490000D02*
X-5240000Y-1440000D01*
X-5240000Y-3390000D02*
X-5240000Y-2610000D01*
X-5240000Y-4560000D02*
X-5240000Y-4510000D01*
X-4700000Y-2620000D02*
X-4940000Y-2950000D01*
X-4460000Y-2950000D01*
X-4700000Y-2620000D01*
G36*
X-4460000Y-2950000D02*
G01*
X-4940000Y-2950000D01*
X-4700000Y-2620000D01*
X-4460000Y-2950000D01*
G37*
%TO.C,C1*%
X-9735000Y1738748D02*
X-9735000Y2261252D01*
X-8265000Y1738748D02*
X-8265000Y2261252D01*
%TO.C,C3*%
X1738748Y7735000D02*
X2261252Y7735000D01*
X1738748Y6265000D02*
X2261252Y6265000D01*
%TO.C,Q2*%
X5240000Y-1440000D02*
X5240000Y-2440000D01*
X5240000Y-3560000D02*
X5240000Y-4560000D01*
X5240000Y-4560000D02*
X6760000Y-4560000D01*
X6760000Y-1440000D02*
X5240000Y-1440000D01*
X6760000Y-1490000D02*
X6760000Y-1440000D01*
X6760000Y-3390000D02*
X6760000Y-2610000D01*
X6760000Y-4560000D02*
X6760000Y-4510000D01*
X7300000Y-2620000D02*
X7060000Y-2950000D01*
X7540000Y-2950000D01*
X7300000Y-2620000D01*
G36*
X7540000Y-2950000D02*
G01*
X7060000Y-2950000D01*
X7300000Y-2620000D01*
X7540000Y-2950000D01*
G37*
%TO.C,C4*%
X8265000Y1738748D02*
X8265000Y2261252D01*
X9735000Y1738748D02*
X9735000Y2261252D01*
%TO.C,R4*%
X5762742Y-7477500D02*
X6237258Y-7477500D01*
X5762742Y-8522500D02*
X6237258Y-8522500D01*
%TO.C,R5*%
X237258Y-8977500D02*
X-237258Y-8977500D01*
X237258Y-10022500D02*
X-237258Y-10022500D01*
%TD*%
M02*
