%TF.GenerationSoftware,KiCad,Pcbnew,10.0.4*%
%TF.CreationDate,2026-07-24T19:44:11+02:00*%
%TF.ProjectId,PulseWristTrack,50756c73-6557-4726-9973-74547261636b,rev?*%
%TF.SameCoordinates,Original*%
%TF.FileFunction,Other,User*%
%FSLAX46Y46*%
G04 Gerber Fmt 4.6, Leading zero omitted, Abs format (unit mm)*
G04 Created by KiCad (PCBNEW 10.0.4) date 2026-07-24 19:44:11*
%MOMM*%
%LPD*%
G01*
G04 APERTURE LIST*
%ADD10C,0.050000*%
G04 APERTURE END LIST*
%TO.C,U3*%
D10*
X-7050000Y6500000D02*
X-7050000Y5390000D01*
X-7050000Y5390000D02*
X-6050000Y5390000D01*
X-7050000Y4610000D02*
X-7050000Y3500000D01*
X-7050000Y3500000D02*
X-6050000Y3500000D01*
X-6050000Y6700000D02*
X-6050000Y6500000D01*
X-6050000Y6500000D02*
X-7050000Y6500000D01*
X-6050000Y5390000D02*
X-6050000Y4610000D01*
X-6050000Y4610000D02*
X-7050000Y4610000D01*
X-6050000Y3500000D02*
X-6050000Y3300000D01*
X-6050000Y3300000D02*
X-3950000Y3300000D01*
X-3950000Y6700000D02*
X-6050000Y6700000D01*
X-3950000Y6500000D02*
X-3950000Y6700000D01*
X-3950000Y3500000D02*
X-2950000Y3500000D01*
X-3950000Y3300000D02*
X-3950000Y3500000D01*
X-2950000Y6500000D02*
X-3950000Y6500000D01*
X-2950000Y3500000D02*
X-2950000Y6500000D01*
%TO.C,R2*%
X-4480000Y-7270000D02*
X-1520000Y-7270000D01*
X-1520000Y-8730000D01*
X-4480000Y-8730000D01*
X-4480000Y-7270000D01*
%TO.C,R3*%
X1520000Y-7270000D02*
X4480000Y-7270000D01*
X4480000Y-8730000D01*
X1520000Y-8730000D01*
X1520000Y-7270000D01*
%TO.C,R1*%
X-7480000Y-7270000D02*
X-4520000Y-7270000D01*
X-4520000Y-8730000D01*
X-7480000Y-8730000D01*
X-7480000Y-7270000D01*
%TO.C,C2*%
X-4200000Y8980000D02*
X-800000Y8980000D01*
X-800000Y7020000D01*
X-4200000Y7020000D01*
X-4200000Y8980000D01*
%TO.C,Q1*%
X-7930000Y-2450000D02*
X-7930000Y-3550000D01*
X-7930000Y-3550000D02*
X-6900000Y-3550000D01*
X-6900000Y-1300000D02*
X-6900000Y-2450000D01*
X-6900000Y-2450000D02*
X-7930000Y-2450000D01*
X-6900000Y-3550000D02*
X-6900000Y-4700000D01*
X-6900000Y-4700000D02*
X-5100000Y-4700000D01*
X-5100000Y-1300000D02*
X-6900000Y-1300000D01*
X-5100000Y-1500000D02*
X-5100000Y-1300000D01*
X-5100000Y-2610000D02*
X-4070000Y-2610000D01*
X-5100000Y-3390000D02*
X-5100000Y-2610000D01*
X-5100000Y-4500000D02*
X-4070000Y-4500000D01*
X-5100000Y-4700000D02*
X-5100000Y-4500000D01*
X-4070000Y-1500000D02*
X-5100000Y-1500000D01*
X-4070000Y-2610000D02*
X-4070000Y-1500000D01*
X-4070000Y-3390000D02*
X-5100000Y-3390000D01*
X-4070000Y-4500000D02*
X-4070000Y-3390000D01*
%TO.C,C1*%
X-9980000Y3700000D02*
X-8020000Y3700000D01*
X-8020000Y300000D01*
X-9980000Y300000D01*
X-9980000Y3700000D01*
%TO.C,U2*%
X-3000000Y1900000D02*
X3000000Y1900000D01*
X3000000Y-1900000D01*
X-3000000Y-1900000D01*
X-3000000Y1900000D01*
%TO.C,C3*%
X300000Y7980000D02*
X3700000Y7980000D01*
X3700000Y6020000D01*
X300000Y6020000D01*
X300000Y7980000D01*
%TO.C,Q2*%
X4070000Y-2450000D02*
X4070000Y-3550000D01*
X4070000Y-3550000D02*
X5100000Y-3550000D01*
X5100000Y-1300000D02*
X5100000Y-2450000D01*
X5100000Y-2450000D02*
X4070000Y-2450000D01*
X5100000Y-3550000D02*
X5100000Y-4700000D01*
X5100000Y-4700000D02*
X6900000Y-4700000D01*
X6900000Y-1300000D02*
X5100000Y-1300000D01*
X6900000Y-1500000D02*
X6900000Y-1300000D01*
X6900000Y-2610000D02*
X7930000Y-2610000D01*
X6900000Y-3390000D02*
X6900000Y-2610000D01*
X6900000Y-4500000D02*
X7930000Y-4500000D01*
X6900000Y-4700000D02*
X6900000Y-4500000D01*
X7930000Y-1500000D02*
X6900000Y-1500000D01*
X7930000Y-2610000D02*
X7930000Y-1500000D01*
X7930000Y-3390000D02*
X6900000Y-3390000D01*
X7930000Y-4500000D02*
X7930000Y-3390000D01*
%TO.C,C4*%
X8020000Y3700000D02*
X9980000Y3700000D01*
X9980000Y300000D01*
X8020000Y300000D01*
X8020000Y3700000D01*
%TO.C,R4*%
X4520000Y-7270000D02*
X7480000Y-7270000D01*
X7480000Y-8730000D01*
X4520000Y-8730000D01*
X4520000Y-7270000D01*
%TO.C,R5*%
X-1480000Y-8770000D02*
X1480000Y-8770000D01*
X1480000Y-10230000D01*
X-1480000Y-10230000D01*
X-1480000Y-8770000D01*
%TD*%
M02*
