%TF.GenerationSoftware,KiCad,Pcbnew,10.0.4*%
%TF.CreationDate,2026-07-24T19:44:11+02:00*%
%TF.ProjectId,PulseWristTrack,50756c73-6557-4726-9973-74547261636b,rev?*%
%TF.SameCoordinates,Original*%
%TF.FileFunction,Legend,Top*%
%TF.FilePolarity,Positive*%
%FSLAX46Y46*%
G04 Gerber Fmt 4.6, Leading zero omitted, Abs format (unit mm)*
G04 Created by KiCad (PCBNEW 10.0.4) date 2026-07-24 19:44:11*
%MOMM*%
%LPD*%
G01*
G04 APERTURE LIST*
%ADD10C,0.150000*%
%ADD11C,0.158750*%
%ADD12C,0.120000*%
G04 APERTURE END LIST*
D10*
X-7333333Y11095180D02*
X-7333333Y10380895D01*
X-7333333Y10380895D02*
X-7380952Y10238038D01*
X-7380952Y10238038D02*
X-7476190Y10142800D01*
X-7476190Y10142800D02*
X-7619047Y10095180D01*
X-7619047Y10095180D02*
X-7714285Y10095180D01*
X-6333333Y10095180D02*
X-6904761Y10095180D01*
X-6619047Y10095180D02*
X-6619047Y11095180D01*
X-6619047Y11095180D02*
X-6714285Y10952323D01*
X-6714285Y10952323D02*
X-6809523Y10857085D01*
X-6809523Y10857085D02*
X-6904761Y10809466D01*
D11*
X10306666Y-579271D02*
X10306666Y690728D01*
X10306666Y690728D02*
X10730000Y-216414D01*
X10730000Y-216414D02*
X11153333Y690728D01*
X11153333Y690728D02*
X11153333Y-579271D01*
X11758095Y-579271D02*
X11758095Y690728D01*
X11758095Y85966D02*
X12483810Y85966D01*
X12483810Y-579271D02*
X12483810Y690728D01*
X13028095Y569776D02*
X13088571Y630252D01*
X13088571Y630252D02*
X13209524Y690728D01*
X13209524Y690728D02*
X13511905Y690728D01*
X13511905Y690728D02*
X13632857Y630252D01*
X13632857Y630252D02*
X13693333Y569776D01*
X13693333Y569776D02*
X13753810Y448824D01*
X13753810Y448824D02*
X13753810Y327871D01*
X13753810Y327871D02*
X13693333Y146443D01*
X13693333Y146443D02*
X12967619Y-579271D01*
X12967619Y-579271D02*
X13753810Y-579271D01*
D10*
X6666667Y12392800D02*
X6809524Y12345180D01*
X6809524Y12345180D02*
X7047619Y12345180D01*
X7047619Y12345180D02*
X7142857Y12392800D01*
X7142857Y12392800D02*
X7190476Y12440419D01*
X7190476Y12440419D02*
X7238095Y12535657D01*
X7238095Y12535657D02*
X7238095Y12630895D01*
X7238095Y12630895D02*
X7190476Y12726133D01*
X7190476Y12726133D02*
X7142857Y12773752D01*
X7142857Y12773752D02*
X7047619Y12821371D01*
X7047619Y12821371D02*
X6857143Y12868990D01*
X6857143Y12868990D02*
X6761905Y12916609D01*
X6761905Y12916609D02*
X6714286Y12964228D01*
X6714286Y12964228D02*
X6666667Y13059466D01*
X6666667Y13059466D02*
X6666667Y13154704D01*
X6666667Y13154704D02*
X6714286Y13249942D01*
X6714286Y13249942D02*
X6761905Y13297561D01*
X6761905Y13297561D02*
X6857143Y13345180D01*
X6857143Y13345180D02*
X7095238Y13345180D01*
X7095238Y13345180D02*
X7238095Y13297561D01*
X7571429Y13345180D02*
X7809524Y12345180D01*
X7809524Y12345180D02*
X8000000Y13059466D01*
X8000000Y13059466D02*
X8190476Y12345180D01*
X8190476Y12345180D02*
X8428572Y13345180D01*
X9333333Y12345180D02*
X8761905Y12345180D01*
X9047619Y12345180D02*
X9047619Y13345180D01*
X9047619Y13345180D02*
X8952381Y13202323D01*
X8952381Y13202323D02*
X8857143Y13107085D01*
X8857143Y13107085D02*
X8761905Y13059466D01*
D11*
X-13693333Y-579271D02*
X-13693333Y690728D01*
X-13693333Y690728D02*
X-13269999Y-216414D01*
X-13269999Y-216414D02*
X-12846666Y690728D01*
X-12846666Y690728D02*
X-12846666Y-579271D01*
X-12241904Y-579271D02*
X-12241904Y690728D01*
X-12241904Y85966D02*
X-11516189Y85966D01*
X-11516189Y-579271D02*
X-11516189Y690728D01*
X-10246189Y-579271D02*
X-10971904Y-579271D01*
X-10609047Y-579271D02*
X-10609047Y690728D01*
X-10609047Y690728D02*
X-10729999Y509300D01*
X-10729999Y509300D02*
X-10850951Y388347D01*
X-10850951Y388347D02*
X-10971904Y327871D01*
D10*
X-761904Y-1184819D02*
X-761904Y-1994342D01*
X-761904Y-1994342D02*
X-714285Y-2089580D01*
X-714285Y-2089580D02*
X-666666Y-2137200D01*
X-666666Y-2137200D02*
X-571428Y-2184819D01*
X-571428Y-2184819D02*
X-380952Y-2184819D01*
X-380952Y-2184819D02*
X-285714Y-2137200D01*
X-285714Y-2137200D02*
X-238095Y-2089580D01*
X-238095Y-2089580D02*
X-190476Y-1994342D01*
X-190476Y-1994342D02*
X-190476Y-1184819D01*
X809523Y-2184819D02*
X238095Y-2184819D01*
X523809Y-2184819D02*
X523809Y-1184819D01*
X523809Y-1184819D02*
X428571Y-1327676D01*
X428571Y-1327676D02*
X333333Y-1422914D01*
X333333Y-1422914D02*
X238095Y-1470533D01*
%TO.C,J1*%
D12*
X-10060000Y9460000D02*
X-10060000Y1640000D01*
X-10060000Y7860000D02*
X-9140000Y7860000D01*
X-10060000Y1640000D02*
X-3940000Y1640000D01*
X-9140000Y9460000D02*
X-10060000Y9460000D01*
X-9140000Y7860000D02*
X-9140000Y9460000D01*
X-8860000Y7860000D02*
X-9140000Y7860000D01*
X-8860000Y7860000D02*
X-8860000Y9075000D01*
X-8800000Y3900000D02*
X-8800000Y1640000D01*
X-8300000Y3900000D02*
X-8300000Y1640000D01*
X-7500000Y6000000D02*
X-6500000Y6000000D01*
X-7500000Y1640000D02*
X-7500000Y6000000D01*
X-6500000Y6000000D02*
X-6500000Y1640000D01*
X-4860000Y9460000D02*
X-4860000Y7860000D01*
X-4860000Y7860000D02*
X-5140000Y7860000D01*
X-3940000Y9460000D02*
X-4860000Y9460000D01*
X-3940000Y7860000D02*
X-4860000Y7860000D01*
X-3940000Y1640000D02*
X-3940000Y9460000D01*
X-9300000Y5500000D02*
X-8300000Y5500000D01*
X-8300000Y3900000D01*
X-9300000Y3900000D01*
X-9300000Y5500000D01*
X-5700000Y5500000D02*
X-4700000Y5500000D01*
X-4700000Y3900000D01*
X-5700000Y3900000D01*
X-5700000Y5500000D01*
%TO.C,SW1*%
X3400000Y9900000D02*
X4600000Y9900000D01*
X3400000Y7600000D02*
X3400000Y9900000D01*
X7100000Y9900000D02*
X6400000Y9900000D01*
X9600000Y9900000D02*
X8900000Y9900000D01*
X11400000Y9900000D02*
X12600000Y9900000D01*
X12600000Y9900000D02*
X12600000Y7600000D01*
%TD*%
M02*
