%TF.GenerationSoftware,KiCad,Pcbnew,10.0.4*%
%TF.CreationDate,2026-07-24T19:44:11+02:00*%
%TF.ProjectId,PulseWristTrack,50756c73-6557-4726-9973-74547261636b,rev?*%
%TF.SameCoordinates,Original*%
%TF.FileFunction,AssemblyDrawing,Bot*%
%FSLAX46Y46*%
G04 Gerber Fmt 4.6, Leading zero omitted, Abs format (unit mm)*
G04 Created by KiCad (PCBNEW 10.0.4) date 2026-07-24 19:44:11*
%MOMM*%
%LPD*%
G01*
G04 APERTURE LIST*
%ADD10C,0.150000*%
%ADD11C,0.110000*%
%ADD12C,0.060000*%
%ADD13C,0.080000*%
%ADD14C,0.100000*%
G04 APERTURE END LIST*
D10*
X-47619Y2430895D02*
X-523809Y2430895D01*
X47618Y2145180D02*
X-285714Y3145180D01*
X-285714Y3145180D02*
X-619047Y2145180D01*
X-952381Y2145180D02*
X-952381Y3145180D01*
X-952381Y3145180D02*
X-1333333Y3145180D01*
X-1333333Y3145180D02*
X-1428571Y3097561D01*
X-1428571Y3097561D02*
X-1476190Y3049942D01*
X-1476190Y3049942D02*
X-1523809Y2954704D01*
X-1523809Y2954704D02*
X-1523809Y2811847D01*
X-1523809Y2811847D02*
X-1476190Y2716609D01*
X-1476190Y2716609D02*
X-1428571Y2668990D01*
X-1428571Y2668990D02*
X-1333333Y2621371D01*
X-1333333Y2621371D02*
X-952381Y2621371D01*
X-1904762Y3049942D02*
X-1952381Y3097561D01*
X-1952381Y3097561D02*
X-2047619Y3145180D01*
X-2047619Y3145180D02*
X-2285714Y3145180D01*
X-2285714Y3145180D02*
X-2380952Y3097561D01*
X-2380952Y3097561D02*
X-2428571Y3049942D01*
X-2428571Y3049942D02*
X-2476190Y2954704D01*
X-2476190Y2954704D02*
X-2476190Y2859466D01*
X-2476190Y2859466D02*
X-2428571Y2716609D01*
X-2428571Y2716609D02*
X-1857143Y2145180D01*
X-1857143Y2145180D02*
X-2476190Y2145180D01*
X-3428571Y2145180D02*
X-2857143Y2145180D01*
X-3142857Y2145180D02*
X-3142857Y3145180D01*
X-3142857Y3145180D02*
X-3047619Y3002323D01*
X-3047619Y3002323D02*
X-2952381Y2907085D01*
X-2952381Y2907085D02*
X-2857143Y2859466D01*
X-4380952Y2145180D02*
X-3809524Y2145180D01*
X-4095238Y2145180D02*
X-4095238Y3145180D01*
X-4095238Y3145180D02*
X-4000000Y3002323D01*
X-4000000Y3002323D02*
X-3904762Y2907085D01*
X-3904762Y2907085D02*
X-3809524Y2859466D01*
X-4761905Y3049942D02*
X-4809524Y3097561D01*
X-4809524Y3097561D02*
X-4904762Y3145180D01*
X-4904762Y3145180D02*
X-5142857Y3145180D01*
X-5142857Y3145180D02*
X-5238095Y3097561D01*
X-5238095Y3097561D02*
X-5285714Y3049942D01*
X-5285714Y3049942D02*
X-5333333Y2954704D01*
X-5333333Y2954704D02*
X-5333333Y2859466D01*
X-5333333Y2859466D02*
X-5285714Y2716609D01*
X-5285714Y2716609D02*
X-4714286Y2145180D01*
X-4714286Y2145180D02*
X-5333333Y2145180D01*
X-5761905Y2145180D02*
X-5761905Y3145180D01*
X-6333333Y2145180D02*
X-5904762Y2716609D01*
X-6333333Y3145180D02*
X-5761905Y2573752D01*
X-6761905Y2526133D02*
X-7523810Y2526133D01*
X-8523809Y2145180D02*
X-7952381Y2145180D01*
X-8238095Y2145180D02*
X-8238095Y3145180D01*
X-8238095Y3145180D02*
X-8142857Y3002323D01*
X-8142857Y3002323D02*
X-8047619Y2907085D01*
X-8047619Y2907085D02*
X-7952381Y2859466D01*
X-8952381Y2240419D02*
X-9000000Y2192800D01*
X-9000000Y2192800D02*
X-8952381Y2145180D01*
X-8952381Y2145180D02*
X-8904762Y2192800D01*
X-8904762Y2192800D02*
X-8952381Y2240419D01*
X-8952381Y2240419D02*
X-8952381Y2145180D01*
X-9571428Y2716609D02*
X-9476190Y2764228D01*
X-9476190Y2764228D02*
X-9428571Y2811847D01*
X-9428571Y2811847D02*
X-9380952Y2907085D01*
X-9380952Y2907085D02*
X-9380952Y2954704D01*
X-9380952Y2954704D02*
X-9428571Y3049942D01*
X-9428571Y3049942D02*
X-9476190Y3097561D01*
X-9476190Y3097561D02*
X-9571428Y3145180D01*
X-9571428Y3145180D02*
X-9761904Y3145180D01*
X-9761904Y3145180D02*
X-9857142Y3097561D01*
X-9857142Y3097561D02*
X-9904761Y3049942D01*
X-9904761Y3049942D02*
X-9952380Y2954704D01*
X-9952380Y2954704D02*
X-9952380Y2907085D01*
X-9952380Y2907085D02*
X-9904761Y2811847D01*
X-9904761Y2811847D02*
X-9857142Y2764228D01*
X-9857142Y2764228D02*
X-9761904Y2716609D01*
X-9761904Y2716609D02*
X-9571428Y2716609D01*
X-9571428Y2716609D02*
X-9476190Y2668990D01*
X-9476190Y2668990D02*
X-9428571Y2621371D01*
X-9428571Y2621371D02*
X-9380952Y2526133D01*
X-9380952Y2526133D02*
X-9380952Y2335657D01*
X-9380952Y2335657D02*
X-9428571Y2240419D01*
X-9428571Y2240419D02*
X-9476190Y2192800D01*
X-9476190Y2192800D02*
X-9571428Y2145180D01*
X-9571428Y2145180D02*
X-9761904Y2145180D01*
X-9761904Y2145180D02*
X-9857142Y2192800D01*
X-9857142Y2192800D02*
X-9904761Y2240419D01*
X-9904761Y2240419D02*
X-9952380Y2335657D01*
X-9952380Y2335657D02*
X-9952380Y2526133D01*
X-9952380Y2526133D02*
X-9904761Y2621371D01*
X-9904761Y2621371D02*
X-9857142Y2668990D01*
X-9857142Y2668990D02*
X-9761904Y2716609D01*
D11*
X-5392634Y5548571D02*
X-4809777Y5548571D01*
X-4809777Y5548571D02*
X-4741205Y5514285D01*
X-4741205Y5514285D02*
X-4706920Y5480000D01*
X-4706920Y5480000D02*
X-4672634Y5411428D01*
X-4672634Y5411428D02*
X-4672634Y5274285D01*
X-4672634Y5274285D02*
X-4706920Y5205714D01*
X-4706920Y5205714D02*
X-4741205Y5171428D01*
X-4741205Y5171428D02*
X-4809777Y5137142D01*
X-4809777Y5137142D02*
X-5392634Y5137142D01*
X-5392634Y4862856D02*
X-5392634Y4417142D01*
X-5392634Y4417142D02*
X-5118348Y4657142D01*
X-5118348Y4657142D02*
X-5118348Y4554285D01*
X-5118348Y4554285D02*
X-5084062Y4485714D01*
X-5084062Y4485714D02*
X-5049777Y4451428D01*
X-5049777Y4451428D02*
X-4981205Y4417142D01*
X-4981205Y4417142D02*
X-4809777Y4417142D01*
X-4809777Y4417142D02*
X-4741205Y4451428D01*
X-4741205Y4451428D02*
X-4706920Y4485714D01*
X-4706920Y4485714D02*
X-4672634Y4554285D01*
X-4672634Y4554285D02*
X-4672634Y4759999D01*
X-4672634Y4759999D02*
X-4706920Y4828571D01*
X-4706920Y4828571D02*
X-4741205Y4862856D01*
D10*
X-2071428Y-9218152D02*
X-2071428Y-9884819D01*
X-1833333Y-8837200D02*
X-1595238Y-9551485D01*
X-1595238Y-9551485D02*
X-2214285Y-9551485D01*
X-2595238Y-9789580D02*
X-2642857Y-9837200D01*
X-2642857Y-9837200D02*
X-2595238Y-9884819D01*
X-2595238Y-9884819D02*
X-2547619Y-9837200D01*
X-2547619Y-9837200D02*
X-2595238Y-9789580D01*
X-2595238Y-9789580D02*
X-2595238Y-9884819D01*
X-2976190Y-8884819D02*
X-3642856Y-8884819D01*
X-3642856Y-8884819D02*
X-3214285Y-9884819D01*
X-4023809Y-9884819D02*
X-4023809Y-8884819D01*
X-4119047Y-9503866D02*
X-4404761Y-9884819D01*
X-4404761Y-9218152D02*
X-4023809Y-9599104D01*
D12*
X-2933333Y-8181927D02*
X-2800000Y-7991451D01*
X-2704762Y-8181927D02*
X-2704762Y-7781927D01*
X-2704762Y-7781927D02*
X-2857143Y-7781927D01*
X-2857143Y-7781927D02*
X-2895238Y-7800975D01*
X-2895238Y-7800975D02*
X-2914285Y-7820022D01*
X-2914285Y-7820022D02*
X-2933333Y-7858118D01*
X-2933333Y-7858118D02*
X-2933333Y-7915260D01*
X-2933333Y-7915260D02*
X-2914285Y-7953356D01*
X-2914285Y-7953356D02*
X-2895238Y-7972403D01*
X-2895238Y-7972403D02*
X-2857143Y-7991451D01*
X-2857143Y-7991451D02*
X-2704762Y-7991451D01*
X-3085714Y-7820022D02*
X-3104762Y-7800975D01*
X-3104762Y-7800975D02*
X-3142857Y-7781927D01*
X-3142857Y-7781927D02*
X-3238095Y-7781927D01*
X-3238095Y-7781927D02*
X-3276190Y-7800975D01*
X-3276190Y-7800975D02*
X-3295238Y-7820022D01*
X-3295238Y-7820022D02*
X-3314285Y-7858118D01*
X-3314285Y-7858118D02*
X-3314285Y-7896213D01*
X-3314285Y-7896213D02*
X-3295238Y-7953356D01*
X-3295238Y-7953356D02*
X-3066666Y-8181927D01*
X-3066666Y-8181927D02*
X-3314285Y-8181927D01*
D10*
X3928571Y-9218152D02*
X3928571Y-9884819D01*
X4166666Y-8837200D02*
X4404761Y-9551485D01*
X4404761Y-9551485D02*
X3785714Y-9551485D01*
X3404761Y-9789580D02*
X3357142Y-9837200D01*
X3357142Y-9837200D02*
X3404761Y-9884819D01*
X3404761Y-9884819D02*
X3452380Y-9837200D01*
X3452380Y-9837200D02*
X3404761Y-9789580D01*
X3404761Y-9789580D02*
X3404761Y-9884819D01*
X3023809Y-8884819D02*
X2357143Y-8884819D01*
X2357143Y-8884819D02*
X2785714Y-9884819D01*
X1976190Y-9884819D02*
X1976190Y-8884819D01*
X1880952Y-9503866D02*
X1595238Y-9884819D01*
X1595238Y-9218152D02*
X1976190Y-9599104D01*
D12*
X3066666Y-8181927D02*
X3199999Y-7991451D01*
X3295237Y-8181927D02*
X3295237Y-7781927D01*
X3295237Y-7781927D02*
X3142856Y-7781927D01*
X3142856Y-7781927D02*
X3104761Y-7800975D01*
X3104761Y-7800975D02*
X3085714Y-7820022D01*
X3085714Y-7820022D02*
X3066666Y-7858118D01*
X3066666Y-7858118D02*
X3066666Y-7915260D01*
X3066666Y-7915260D02*
X3085714Y-7953356D01*
X3085714Y-7953356D02*
X3104761Y-7972403D01*
X3104761Y-7972403D02*
X3142856Y-7991451D01*
X3142856Y-7991451D02*
X3295237Y-7991451D01*
X2933333Y-7781927D02*
X2685714Y-7781927D01*
X2685714Y-7781927D02*
X2819047Y-7934308D01*
X2819047Y-7934308D02*
X2761904Y-7934308D01*
X2761904Y-7934308D02*
X2723809Y-7953356D01*
X2723809Y-7953356D02*
X2704761Y-7972403D01*
X2704761Y-7972403D02*
X2685714Y-8010499D01*
X2685714Y-8010499D02*
X2685714Y-8105737D01*
X2685714Y-8105737D02*
X2704761Y-8143832D01*
X2704761Y-8143832D02*
X2723809Y-8162880D01*
X2723809Y-8162880D02*
X2761904Y-8181927D01*
X2761904Y-8181927D02*
X2876190Y-8181927D01*
X2876190Y-8181927D02*
X2914285Y-8162880D01*
X2914285Y-8162880D02*
X2933333Y-8143832D01*
D10*
X-5071428Y-6358152D02*
X-5071428Y-7024819D01*
X-4833333Y-5977200D02*
X-4595238Y-6691485D01*
X-4595238Y-6691485D02*
X-5214285Y-6691485D01*
X-5595238Y-6929580D02*
X-5642857Y-6977200D01*
X-5642857Y-6977200D02*
X-5595238Y-7024819D01*
X-5595238Y-7024819D02*
X-5547619Y-6977200D01*
X-5547619Y-6977200D02*
X-5595238Y-6929580D01*
X-5595238Y-6929580D02*
X-5595238Y-7024819D01*
X-5976190Y-6024819D02*
X-6642856Y-6024819D01*
X-6642856Y-6024819D02*
X-6214285Y-7024819D01*
X-7023809Y-7024819D02*
X-7023809Y-6024819D01*
X-7119047Y-6643866D02*
X-7404761Y-7024819D01*
X-7404761Y-6358152D02*
X-7023809Y-6739104D01*
D12*
X-5933333Y-8181927D02*
X-5800000Y-7991451D01*
X-5704762Y-8181927D02*
X-5704762Y-7781927D01*
X-5704762Y-7781927D02*
X-5857143Y-7781927D01*
X-5857143Y-7781927D02*
X-5895238Y-7800975D01*
X-5895238Y-7800975D02*
X-5914285Y-7820022D01*
X-5914285Y-7820022D02*
X-5933333Y-7858118D01*
X-5933333Y-7858118D02*
X-5933333Y-7915260D01*
X-5933333Y-7915260D02*
X-5914285Y-7953356D01*
X-5914285Y-7953356D02*
X-5895238Y-7972403D01*
X-5895238Y-7972403D02*
X-5857143Y-7991451D01*
X-5857143Y-7991451D02*
X-5704762Y-7991451D01*
X-6314285Y-8181927D02*
X-6085714Y-8181927D01*
X-6200000Y-8181927D02*
X-6200000Y-7781927D01*
X-6200000Y-7781927D02*
X-6161904Y-7839070D01*
X-6161904Y-7839070D02*
X-6123809Y-7877165D01*
X-6123809Y-7877165D02*
X-6085714Y-7896213D01*
D10*
X-1904761Y5865180D02*
X-1333333Y5865180D01*
X-1619047Y5865180D02*
X-1619047Y6865180D01*
X-1619047Y6865180D02*
X-1523809Y6722323D01*
X-1523809Y6722323D02*
X-1428571Y6627085D01*
X-1428571Y6627085D02*
X-1333333Y6579466D01*
X-2761904Y6531847D02*
X-2761904Y5865180D01*
X-2333333Y6531847D02*
X-2333333Y6008038D01*
X-2333333Y6008038D02*
X-2380952Y5912800D01*
X-2380952Y5912800D02*
X-2476190Y5865180D01*
X-2476190Y5865180D02*
X-2619047Y5865180D01*
X-2619047Y5865180D02*
X-2714285Y5912800D01*
X-2714285Y5912800D02*
X-2761904Y5960419D01*
X-3571428Y6388990D02*
X-3238095Y6388990D01*
X-3238095Y5865180D02*
X-3238095Y6865180D01*
X-3238095Y6865180D02*
X-3714285Y6865180D01*
D13*
X-2416666Y7820469D02*
X-2392857Y7796660D01*
X-2392857Y7796660D02*
X-2321428Y7772850D01*
X-2321428Y7772850D02*
X-2273809Y7772850D01*
X-2273809Y7772850D02*
X-2202381Y7796660D01*
X-2202381Y7796660D02*
X-2154762Y7844279D01*
X-2154762Y7844279D02*
X-2130952Y7891898D01*
X-2130952Y7891898D02*
X-2107143Y7987136D01*
X-2107143Y7987136D02*
X-2107143Y8058564D01*
X-2107143Y8058564D02*
X-2130952Y8153802D01*
X-2130952Y8153802D02*
X-2154762Y8201421D01*
X-2154762Y8201421D02*
X-2202381Y8249040D01*
X-2202381Y8249040D02*
X-2273809Y8272850D01*
X-2273809Y8272850D02*
X-2321428Y8272850D01*
X-2321428Y8272850D02*
X-2392857Y8249040D01*
X-2392857Y8249040D02*
X-2416666Y8225231D01*
X-2607143Y8225231D02*
X-2630952Y8249040D01*
X-2630952Y8249040D02*
X-2678571Y8272850D01*
X-2678571Y8272850D02*
X-2797619Y8272850D01*
X-2797619Y8272850D02*
X-2845238Y8249040D01*
X-2845238Y8249040D02*
X-2869047Y8225231D01*
X-2869047Y8225231D02*
X-2892857Y8177612D01*
X-2892857Y8177612D02*
X-2892857Y8129993D01*
X-2892857Y8129993D02*
X-2869047Y8058564D01*
X-2869047Y8058564D02*
X-2583333Y7772850D01*
X-2583333Y7772850D02*
X-2892857Y7772850D01*
D10*
X-3690476Y-5331009D02*
X-3833333Y-5378628D01*
X-3833333Y-5378628D02*
X-3880952Y-5426247D01*
X-3880952Y-5426247D02*
X-3928571Y-5521485D01*
X-3928571Y-5521485D02*
X-3928571Y-5664342D01*
X-3928571Y-5664342D02*
X-3880952Y-5759580D01*
X-3880952Y-5759580D02*
X-3833333Y-5807200D01*
X-3833333Y-5807200D02*
X-3738095Y-5854819D01*
X-3738095Y-5854819D02*
X-3357143Y-5854819D01*
X-3357143Y-5854819D02*
X-3357143Y-4854819D01*
X-3357143Y-4854819D02*
X-3690476Y-4854819D01*
X-3690476Y-4854819D02*
X-3785714Y-4902438D01*
X-3785714Y-4902438D02*
X-3833333Y-4950057D01*
X-3833333Y-4950057D02*
X-3880952Y-5045295D01*
X-3880952Y-5045295D02*
X-3880952Y-5140533D01*
X-3880952Y-5140533D02*
X-3833333Y-5235771D01*
X-3833333Y-5235771D02*
X-3785714Y-5283390D01*
X-3785714Y-5283390D02*
X-3690476Y-5331009D01*
X-3690476Y-5331009D02*
X-3357143Y-5331009D01*
X-4309524Y-5807200D02*
X-4452381Y-5854819D01*
X-4452381Y-5854819D02*
X-4690476Y-5854819D01*
X-4690476Y-5854819D02*
X-4785714Y-5807200D01*
X-4785714Y-5807200D02*
X-4833333Y-5759580D01*
X-4833333Y-5759580D02*
X-4880952Y-5664342D01*
X-4880952Y-5664342D02*
X-4880952Y-5569104D01*
X-4880952Y-5569104D02*
X-4833333Y-5473866D01*
X-4833333Y-5473866D02*
X-4785714Y-5426247D01*
X-4785714Y-5426247D02*
X-4690476Y-5378628D01*
X-4690476Y-5378628D02*
X-4500000Y-5331009D01*
X-4500000Y-5331009D02*
X-4404762Y-5283390D01*
X-4404762Y-5283390D02*
X-4357143Y-5235771D01*
X-4357143Y-5235771D02*
X-4309524Y-5140533D01*
X-4309524Y-5140533D02*
X-4309524Y-5045295D01*
X-4309524Y-5045295D02*
X-4357143Y-4950057D01*
X-4357143Y-4950057D02*
X-4404762Y-4902438D01*
X-4404762Y-4902438D02*
X-4500000Y-4854819D01*
X-4500000Y-4854819D02*
X-4738095Y-4854819D01*
X-4738095Y-4854819D02*
X-4880952Y-4902438D01*
X-5261905Y-5807200D02*
X-5404762Y-5854819D01*
X-5404762Y-5854819D02*
X-5642857Y-5854819D01*
X-5642857Y-5854819D02*
X-5738095Y-5807200D01*
X-5738095Y-5807200D02*
X-5785714Y-5759580D01*
X-5785714Y-5759580D02*
X-5833333Y-5664342D01*
X-5833333Y-5664342D02*
X-5833333Y-5569104D01*
X-5833333Y-5569104D02*
X-5785714Y-5473866D01*
X-5785714Y-5473866D02*
X-5738095Y-5426247D01*
X-5738095Y-5426247D02*
X-5642857Y-5378628D01*
X-5642857Y-5378628D02*
X-5452381Y-5331009D01*
X-5452381Y-5331009D02*
X-5357143Y-5283390D01*
X-5357143Y-5283390D02*
X-5309524Y-5235771D01*
X-5309524Y-5235771D02*
X-5261905Y-5140533D01*
X-5261905Y-5140533D02*
X-5261905Y-5045295D01*
X-5261905Y-5045295D02*
X-5309524Y-4950057D01*
X-5309524Y-4950057D02*
X-5357143Y-4902438D01*
X-5357143Y-4902438D02*
X-5452381Y-4854819D01*
X-5452381Y-4854819D02*
X-5690476Y-4854819D01*
X-5690476Y-4854819D02*
X-5833333Y-4902438D01*
X-6785714Y-5854819D02*
X-6214286Y-5854819D01*
X-6500000Y-5854819D02*
X-6500000Y-4854819D01*
X-6500000Y-4854819D02*
X-6404762Y-4997676D01*
X-6404762Y-4997676D02*
X-6309524Y-5092914D01*
X-6309524Y-5092914D02*
X-6214286Y-5140533D01*
X-7119048Y-4854819D02*
X-7738095Y-4854819D01*
X-7738095Y-4854819D02*
X-7404762Y-5235771D01*
X-7404762Y-5235771D02*
X-7547619Y-5235771D01*
X-7547619Y-5235771D02*
X-7642857Y-5283390D01*
X-7642857Y-5283390D02*
X-7690476Y-5331009D01*
X-7690476Y-5331009D02*
X-7738095Y-5426247D01*
X-7738095Y-5426247D02*
X-7738095Y-5664342D01*
X-7738095Y-5664342D02*
X-7690476Y-5759580D01*
X-7690476Y-5759580D02*
X-7642857Y-5807200D01*
X-7642857Y-5807200D02*
X-7547619Y-5854819D01*
X-7547619Y-5854819D02*
X-7261905Y-5854819D01*
X-7261905Y-5854819D02*
X-7166667Y-5807200D01*
X-7166667Y-5807200D02*
X-7119048Y-5759580D01*
X-8309524Y-5283390D02*
X-8214286Y-5235771D01*
X-8214286Y-5235771D02*
X-8166667Y-5188152D01*
X-8166667Y-5188152D02*
X-8119048Y-5092914D01*
X-8119048Y-5092914D02*
X-8119048Y-5045295D01*
X-8119048Y-5045295D02*
X-8166667Y-4950057D01*
X-8166667Y-4950057D02*
X-8214286Y-4902438D01*
X-8214286Y-4902438D02*
X-8309524Y-4854819D01*
X-8309524Y-4854819D02*
X-8500000Y-4854819D01*
X-8500000Y-4854819D02*
X-8595238Y-4902438D01*
X-8595238Y-4902438D02*
X-8642857Y-4950057D01*
X-8642857Y-4950057D02*
X-8690476Y-5045295D01*
X-8690476Y-5045295D02*
X-8690476Y-5092914D01*
X-8690476Y-5092914D02*
X-8642857Y-5188152D01*
X-8642857Y-5188152D02*
X-8595238Y-5235771D01*
X-8595238Y-5235771D02*
X-8500000Y-5283390D01*
X-8500000Y-5283390D02*
X-8309524Y-5283390D01*
X-8309524Y-5283390D02*
X-8214286Y-5331009D01*
X-8214286Y-5331009D02*
X-8166667Y-5378628D01*
X-8166667Y-5378628D02*
X-8119048Y-5473866D01*
X-8119048Y-5473866D02*
X-8119048Y-5664342D01*
X-8119048Y-5664342D02*
X-8166667Y-5759580D01*
X-8166667Y-5759580D02*
X-8214286Y-5807200D01*
X-8214286Y-5807200D02*
X-8309524Y-5854819D01*
X-8309524Y-5854819D02*
X-8500000Y-5854819D01*
X-8500000Y-5854819D02*
X-8595238Y-5807200D01*
X-8595238Y-5807200D02*
X-8642857Y-5759580D01*
X-8642857Y-5759580D02*
X-8690476Y-5664342D01*
X-8690476Y-5664342D02*
X-8690476Y-5473866D01*
X-8690476Y-5473866D02*
X-8642857Y-5378628D01*
X-8642857Y-5378628D02*
X-8595238Y-5331009D01*
X-8595238Y-5331009D02*
X-8500000Y-5283390D01*
D11*
X-5604062Y-2931428D02*
X-5638348Y-2862857D01*
X-5638348Y-2862857D02*
X-5706920Y-2794285D01*
X-5706920Y-2794285D02*
X-5809777Y-2691428D01*
X-5809777Y-2691428D02*
X-5844062Y-2622857D01*
X-5844062Y-2622857D02*
X-5844062Y-2554285D01*
X-5672634Y-2588571D02*
X-5706920Y-2520000D01*
X-5706920Y-2520000D02*
X-5775491Y-2451428D01*
X-5775491Y-2451428D02*
X-5912634Y-2417142D01*
X-5912634Y-2417142D02*
X-6152634Y-2417142D01*
X-6152634Y-2417142D02*
X-6289777Y-2451428D01*
X-6289777Y-2451428D02*
X-6358348Y-2520000D01*
X-6358348Y-2520000D02*
X-6392634Y-2588571D01*
X-6392634Y-2588571D02*
X-6392634Y-2725714D01*
X-6392634Y-2725714D02*
X-6358348Y-2794285D01*
X-6358348Y-2794285D02*
X-6289777Y-2862857D01*
X-6289777Y-2862857D02*
X-6152634Y-2897142D01*
X-6152634Y-2897142D02*
X-5912634Y-2897142D01*
X-5912634Y-2897142D02*
X-5775491Y-2862857D01*
X-5775491Y-2862857D02*
X-5706920Y-2794285D01*
X-5706920Y-2794285D02*
X-5672634Y-2725714D01*
X-5672634Y-2725714D02*
X-5672634Y-2588571D01*
X-5672634Y-3582857D02*
X-5672634Y-3171428D01*
X-5672634Y-3377143D02*
X-6392634Y-3377143D01*
X-6392634Y-3377143D02*
X-6289777Y-3308571D01*
X-6289777Y-3308571D02*
X-6221205Y-3240000D01*
X-6221205Y-3240000D02*
X-6186920Y-3171428D01*
D10*
X-10225180Y3071428D02*
X-10225180Y3642856D01*
X-10225180Y3357142D02*
X-11225180Y3357142D01*
X-11225180Y3357142D02*
X-11082323Y3452380D01*
X-11082323Y3452380D02*
X-10987085Y3547618D01*
X-10987085Y3547618D02*
X-10939466Y3642856D01*
X-11225180Y2452380D02*
X-11225180Y2357142D01*
X-11225180Y2357142D02*
X-11177561Y2261904D01*
X-11177561Y2261904D02*
X-11129942Y2214285D01*
X-11129942Y2214285D02*
X-11034704Y2166666D01*
X-11034704Y2166666D02*
X-10844228Y2119047D01*
X-10844228Y2119047D02*
X-10606133Y2119047D01*
X-10606133Y2119047D02*
X-10415657Y2166666D01*
X-10415657Y2166666D02*
X-10320419Y2214285D01*
X-10320419Y2214285D02*
X-10272800Y2261904D01*
X-10272800Y2261904D02*
X-10225180Y2357142D01*
X-10225180Y2357142D02*
X-10225180Y2452380D01*
X-10225180Y2452380D02*
X-10272800Y2547618D01*
X-10272800Y2547618D02*
X-10320419Y2595237D01*
X-10320419Y2595237D02*
X-10415657Y2642856D01*
X-10415657Y2642856D02*
X-10606133Y2690475D01*
X-10606133Y2690475D02*
X-10844228Y2690475D01*
X-10844228Y2690475D02*
X-11034704Y2642856D01*
X-11034704Y2642856D02*
X-11129942Y2595237D01*
X-11129942Y2595237D02*
X-11177561Y2547618D01*
X-11177561Y2547618D02*
X-11225180Y2452380D01*
X-10891847Y1261904D02*
X-10225180Y1261904D01*
X-10891847Y1690475D02*
X-10368038Y1690475D01*
X-10368038Y1690475D02*
X-10272800Y1642856D01*
X-10272800Y1642856D02*
X-10225180Y1547618D01*
X-10225180Y1547618D02*
X-10225180Y1404761D01*
X-10225180Y1404761D02*
X-10272800Y1309523D01*
X-10272800Y1309523D02*
X-10320419Y1261904D01*
X-10748990Y452380D02*
X-10748990Y785713D01*
X-10225180Y785713D02*
X-11225180Y785713D01*
X-11225180Y785713D02*
X-11225180Y309523D01*
D13*
X-8820469Y2083333D02*
X-8796660Y2107142D01*
X-8796660Y2107142D02*
X-8772850Y2178571D01*
X-8772850Y2178571D02*
X-8772850Y2226190D01*
X-8772850Y2226190D02*
X-8796660Y2297618D01*
X-8796660Y2297618D02*
X-8844279Y2345237D01*
X-8844279Y2345237D02*
X-8891898Y2369047D01*
X-8891898Y2369047D02*
X-8987136Y2392856D01*
X-8987136Y2392856D02*
X-9058564Y2392856D01*
X-9058564Y2392856D02*
X-9153802Y2369047D01*
X-9153802Y2369047D02*
X-9201421Y2345237D01*
X-9201421Y2345237D02*
X-9249040Y2297618D01*
X-9249040Y2297618D02*
X-9272850Y2226190D01*
X-9272850Y2226190D02*
X-9272850Y2178571D01*
X-9272850Y2178571D02*
X-9249040Y2107142D01*
X-9249040Y2107142D02*
X-9225231Y2083333D01*
X-8772850Y1607142D02*
X-8772850Y1892856D01*
X-8772850Y1749999D02*
X-9272850Y1749999D01*
X-9272850Y1749999D02*
X-9201421Y1797618D01*
X-9201421Y1797618D02*
X-9153802Y1845237D01*
X-9153802Y1845237D02*
X-9129993Y1892856D01*
D10*
X3619047Y-1724819D02*
X3619047Y-724819D01*
X3619047Y-724819D02*
X3285714Y-1439104D01*
X3285714Y-1439104D02*
X2952381Y-724819D01*
X2952381Y-724819D02*
X2952381Y-1724819D01*
X2523809Y-1439104D02*
X2047619Y-1439104D01*
X2619047Y-1724819D02*
X2285714Y-724819D01*
X2285714Y-724819D02*
X1952381Y-1724819D01*
X1714285Y-724819D02*
X1047619Y-1724819D01*
X1047619Y-724819D02*
X1714285Y-1724819D01*
X761904Y-724819D02*
X142857Y-724819D01*
X142857Y-724819D02*
X476190Y-1105771D01*
X476190Y-1105771D02*
X333333Y-1105771D01*
X333333Y-1105771D02*
X238095Y-1153390D01*
X238095Y-1153390D02*
X190476Y-1201009D01*
X190476Y-1201009D02*
X142857Y-1296247D01*
X142857Y-1296247D02*
X142857Y-1534342D01*
X142857Y-1534342D02*
X190476Y-1629580D01*
X190476Y-1629580D02*
X238095Y-1677200D01*
X238095Y-1677200D02*
X333333Y-1724819D01*
X333333Y-1724819D02*
X619047Y-1724819D01*
X619047Y-1724819D02*
X714285Y-1677200D01*
X714285Y-1677200D02*
X761904Y-1629580D01*
X-476190Y-724819D02*
X-571428Y-724819D01*
X-571428Y-724819D02*
X-666666Y-772438D01*
X-666666Y-772438D02*
X-714285Y-820057D01*
X-714285Y-820057D02*
X-761904Y-915295D01*
X-761904Y-915295D02*
X-809523Y-1105771D01*
X-809523Y-1105771D02*
X-809523Y-1343866D01*
X-809523Y-1343866D02*
X-761904Y-1534342D01*
X-761904Y-1534342D02*
X-714285Y-1629580D01*
X-714285Y-1629580D02*
X-666666Y-1677200D01*
X-666666Y-1677200D02*
X-571428Y-1724819D01*
X-571428Y-1724819D02*
X-476190Y-1724819D01*
X-476190Y-1724819D02*
X-380952Y-1677200D01*
X-380952Y-1677200D02*
X-333333Y-1629580D01*
X-333333Y-1629580D02*
X-285714Y-1534342D01*
X-285714Y-1534342D02*
X-238095Y-1343866D01*
X-238095Y-1343866D02*
X-238095Y-1105771D01*
X-238095Y-1105771D02*
X-285714Y-915295D01*
X-285714Y-915295D02*
X-333333Y-820057D01*
X-333333Y-820057D02*
X-380952Y-772438D01*
X-380952Y-772438D02*
X-476190Y-724819D01*
X-1761904Y-1724819D02*
X-1190476Y-1724819D01*
X-1476190Y-1724819D02*
X-1476190Y-724819D01*
X-1476190Y-724819D02*
X-1380952Y-867676D01*
X-1380952Y-867676D02*
X-1285714Y-962914D01*
X-1285714Y-962914D02*
X-1190476Y-1010533D01*
X-2380952Y-724819D02*
X-2476190Y-724819D01*
X-2476190Y-724819D02*
X-2571428Y-772438D01*
X-2571428Y-772438D02*
X-2619047Y-820057D01*
X-2619047Y-820057D02*
X-2666666Y-915295D01*
X-2666666Y-915295D02*
X-2714285Y-1105771D01*
X-2714285Y-1105771D02*
X-2714285Y-1343866D01*
X-2714285Y-1343866D02*
X-2666666Y-1534342D01*
X-2666666Y-1534342D02*
X-2619047Y-1629580D01*
X-2619047Y-1629580D02*
X-2571428Y-1677200D01*
X-2571428Y-1677200D02*
X-2476190Y-1724819D01*
X-2476190Y-1724819D02*
X-2380952Y-1724819D01*
X-2380952Y-1724819D02*
X-2285714Y-1677200D01*
X-2285714Y-1677200D02*
X-2238095Y-1629580D01*
X-2238095Y-1629580D02*
X-2190476Y-1534342D01*
X-2190476Y-1534342D02*
X-2142857Y-1343866D01*
X-2142857Y-1343866D02*
X-2142857Y-1105771D01*
X-2142857Y-1105771D02*
X-2190476Y-915295D01*
X-2190476Y-915295D02*
X-2238095Y-820057D01*
X-2238095Y-820057D02*
X-2285714Y-772438D01*
X-2285714Y-772438D02*
X-2380952Y-724819D01*
X-3095238Y-820057D02*
X-3142857Y-772438D01*
X-3142857Y-772438D02*
X-3238095Y-724819D01*
X-3238095Y-724819D02*
X-3476190Y-724819D01*
X-3476190Y-724819D02*
X-3571428Y-772438D01*
X-3571428Y-772438D02*
X-3619047Y-820057D01*
X-3619047Y-820057D02*
X-3666666Y-915295D01*
X-3666666Y-915295D02*
X-3666666Y-1010533D01*
X-3666666Y-1010533D02*
X-3619047Y-1153390D01*
X-3619047Y-1153390D02*
X-3047619Y-1724819D01*
X-3047619Y-1724819D02*
X-3666666Y-1724819D01*
X3071428Y8225180D02*
X3642856Y8225180D01*
X3357142Y8225180D02*
X3357142Y9225180D01*
X3357142Y9225180D02*
X3452380Y9082323D01*
X3452380Y9082323D02*
X3547618Y8987085D01*
X3547618Y8987085D02*
X3642856Y8939466D01*
X2452380Y9225180D02*
X2357142Y9225180D01*
X2357142Y9225180D02*
X2261904Y9177561D01*
X2261904Y9177561D02*
X2214285Y9129942D01*
X2214285Y9129942D02*
X2166666Y9034704D01*
X2166666Y9034704D02*
X2119047Y8844228D01*
X2119047Y8844228D02*
X2119047Y8606133D01*
X2119047Y8606133D02*
X2166666Y8415657D01*
X2166666Y8415657D02*
X2214285Y8320419D01*
X2214285Y8320419D02*
X2261904Y8272800D01*
X2261904Y8272800D02*
X2357142Y8225180D01*
X2357142Y8225180D02*
X2452380Y8225180D01*
X2452380Y8225180D02*
X2547618Y8272800D01*
X2547618Y8272800D02*
X2595237Y8320419D01*
X2595237Y8320419D02*
X2642856Y8415657D01*
X2642856Y8415657D02*
X2690475Y8606133D01*
X2690475Y8606133D02*
X2690475Y8844228D01*
X2690475Y8844228D02*
X2642856Y9034704D01*
X2642856Y9034704D02*
X2595237Y9129942D01*
X2595237Y9129942D02*
X2547618Y9177561D01*
X2547618Y9177561D02*
X2452380Y9225180D01*
X1261904Y8891847D02*
X1261904Y8225180D01*
X1690475Y8891847D02*
X1690475Y8368038D01*
X1690475Y8368038D02*
X1642856Y8272800D01*
X1642856Y8272800D02*
X1547618Y8225180D01*
X1547618Y8225180D02*
X1404761Y8225180D01*
X1404761Y8225180D02*
X1309523Y8272800D01*
X1309523Y8272800D02*
X1261904Y8320419D01*
X452380Y8748990D02*
X785713Y8748990D01*
X785713Y8225180D02*
X785713Y9225180D01*
X785713Y9225180D02*
X309523Y9225180D01*
D13*
X2083333Y6820469D02*
X2107142Y6796660D01*
X2107142Y6796660D02*
X2178571Y6772850D01*
X2178571Y6772850D02*
X2226190Y6772850D01*
X2226190Y6772850D02*
X2297618Y6796660D01*
X2297618Y6796660D02*
X2345237Y6844279D01*
X2345237Y6844279D02*
X2369047Y6891898D01*
X2369047Y6891898D02*
X2392856Y6987136D01*
X2392856Y6987136D02*
X2392856Y7058564D01*
X2392856Y7058564D02*
X2369047Y7153802D01*
X2369047Y7153802D02*
X2345237Y7201421D01*
X2345237Y7201421D02*
X2297618Y7249040D01*
X2297618Y7249040D02*
X2226190Y7272850D01*
X2226190Y7272850D02*
X2178571Y7272850D01*
X2178571Y7272850D02*
X2107142Y7249040D01*
X2107142Y7249040D02*
X2083333Y7225231D01*
X1916666Y7272850D02*
X1607142Y7272850D01*
X1607142Y7272850D02*
X1773809Y7082374D01*
X1773809Y7082374D02*
X1702380Y7082374D01*
X1702380Y7082374D02*
X1654761Y7058564D01*
X1654761Y7058564D02*
X1630952Y7034755D01*
X1630952Y7034755D02*
X1607142Y6987136D01*
X1607142Y6987136D02*
X1607142Y6868088D01*
X1607142Y6868088D02*
X1630952Y6820469D01*
X1630952Y6820469D02*
X1654761Y6796660D01*
X1654761Y6796660D02*
X1702380Y6772850D01*
X1702380Y6772850D02*
X1845237Y6772850D01*
X1845237Y6772850D02*
X1892856Y6796660D01*
X1892856Y6796660D02*
X1916666Y6820469D01*
D10*
X8309523Y-5331009D02*
X8166666Y-5378628D01*
X8166666Y-5378628D02*
X8119047Y-5426247D01*
X8119047Y-5426247D02*
X8071428Y-5521485D01*
X8071428Y-5521485D02*
X8071428Y-5664342D01*
X8071428Y-5664342D02*
X8119047Y-5759580D01*
X8119047Y-5759580D02*
X8166666Y-5807200D01*
X8166666Y-5807200D02*
X8261904Y-5854819D01*
X8261904Y-5854819D02*
X8642856Y-5854819D01*
X8642856Y-5854819D02*
X8642856Y-4854819D01*
X8642856Y-4854819D02*
X8309523Y-4854819D01*
X8309523Y-4854819D02*
X8214285Y-4902438D01*
X8214285Y-4902438D02*
X8166666Y-4950057D01*
X8166666Y-4950057D02*
X8119047Y-5045295D01*
X8119047Y-5045295D02*
X8119047Y-5140533D01*
X8119047Y-5140533D02*
X8166666Y-5235771D01*
X8166666Y-5235771D02*
X8214285Y-5283390D01*
X8214285Y-5283390D02*
X8309523Y-5331009D01*
X8309523Y-5331009D02*
X8642856Y-5331009D01*
X7690475Y-5807200D02*
X7547618Y-5854819D01*
X7547618Y-5854819D02*
X7309523Y-5854819D01*
X7309523Y-5854819D02*
X7214285Y-5807200D01*
X7214285Y-5807200D02*
X7166666Y-5759580D01*
X7166666Y-5759580D02*
X7119047Y-5664342D01*
X7119047Y-5664342D02*
X7119047Y-5569104D01*
X7119047Y-5569104D02*
X7166666Y-5473866D01*
X7166666Y-5473866D02*
X7214285Y-5426247D01*
X7214285Y-5426247D02*
X7309523Y-5378628D01*
X7309523Y-5378628D02*
X7499999Y-5331009D01*
X7499999Y-5331009D02*
X7595237Y-5283390D01*
X7595237Y-5283390D02*
X7642856Y-5235771D01*
X7642856Y-5235771D02*
X7690475Y-5140533D01*
X7690475Y-5140533D02*
X7690475Y-5045295D01*
X7690475Y-5045295D02*
X7642856Y-4950057D01*
X7642856Y-4950057D02*
X7595237Y-4902438D01*
X7595237Y-4902438D02*
X7499999Y-4854819D01*
X7499999Y-4854819D02*
X7261904Y-4854819D01*
X7261904Y-4854819D02*
X7119047Y-4902438D01*
X6738094Y-5807200D02*
X6595237Y-5854819D01*
X6595237Y-5854819D02*
X6357142Y-5854819D01*
X6357142Y-5854819D02*
X6261904Y-5807200D01*
X6261904Y-5807200D02*
X6214285Y-5759580D01*
X6214285Y-5759580D02*
X6166666Y-5664342D01*
X6166666Y-5664342D02*
X6166666Y-5569104D01*
X6166666Y-5569104D02*
X6214285Y-5473866D01*
X6214285Y-5473866D02*
X6261904Y-5426247D01*
X6261904Y-5426247D02*
X6357142Y-5378628D01*
X6357142Y-5378628D02*
X6547618Y-5331009D01*
X6547618Y-5331009D02*
X6642856Y-5283390D01*
X6642856Y-5283390D02*
X6690475Y-5235771D01*
X6690475Y-5235771D02*
X6738094Y-5140533D01*
X6738094Y-5140533D02*
X6738094Y-5045295D01*
X6738094Y-5045295D02*
X6690475Y-4950057D01*
X6690475Y-4950057D02*
X6642856Y-4902438D01*
X6642856Y-4902438D02*
X6547618Y-4854819D01*
X6547618Y-4854819D02*
X6309523Y-4854819D01*
X6309523Y-4854819D02*
X6166666Y-4902438D01*
X5214285Y-5854819D02*
X5785713Y-5854819D01*
X5499999Y-5854819D02*
X5499999Y-4854819D01*
X5499999Y-4854819D02*
X5595237Y-4997676D01*
X5595237Y-4997676D02*
X5690475Y-5092914D01*
X5690475Y-5092914D02*
X5785713Y-5140533D01*
X4880951Y-4854819D02*
X4261904Y-4854819D01*
X4261904Y-4854819D02*
X4595237Y-5235771D01*
X4595237Y-5235771D02*
X4452380Y-5235771D01*
X4452380Y-5235771D02*
X4357142Y-5283390D01*
X4357142Y-5283390D02*
X4309523Y-5331009D01*
X4309523Y-5331009D02*
X4261904Y-5426247D01*
X4261904Y-5426247D02*
X4261904Y-5664342D01*
X4261904Y-5664342D02*
X4309523Y-5759580D01*
X4309523Y-5759580D02*
X4357142Y-5807200D01*
X4357142Y-5807200D02*
X4452380Y-5854819D01*
X4452380Y-5854819D02*
X4738094Y-5854819D01*
X4738094Y-5854819D02*
X4833332Y-5807200D01*
X4833332Y-5807200D02*
X4880951Y-5759580D01*
X3690475Y-5283390D02*
X3785713Y-5235771D01*
X3785713Y-5235771D02*
X3833332Y-5188152D01*
X3833332Y-5188152D02*
X3880951Y-5092914D01*
X3880951Y-5092914D02*
X3880951Y-5045295D01*
X3880951Y-5045295D02*
X3833332Y-4950057D01*
X3833332Y-4950057D02*
X3785713Y-4902438D01*
X3785713Y-4902438D02*
X3690475Y-4854819D01*
X3690475Y-4854819D02*
X3499999Y-4854819D01*
X3499999Y-4854819D02*
X3404761Y-4902438D01*
X3404761Y-4902438D02*
X3357142Y-4950057D01*
X3357142Y-4950057D02*
X3309523Y-5045295D01*
X3309523Y-5045295D02*
X3309523Y-5092914D01*
X3309523Y-5092914D02*
X3357142Y-5188152D01*
X3357142Y-5188152D02*
X3404761Y-5235771D01*
X3404761Y-5235771D02*
X3499999Y-5283390D01*
X3499999Y-5283390D02*
X3690475Y-5283390D01*
X3690475Y-5283390D02*
X3785713Y-5331009D01*
X3785713Y-5331009D02*
X3833332Y-5378628D01*
X3833332Y-5378628D02*
X3880951Y-5473866D01*
X3880951Y-5473866D02*
X3880951Y-5664342D01*
X3880951Y-5664342D02*
X3833332Y-5759580D01*
X3833332Y-5759580D02*
X3785713Y-5807200D01*
X3785713Y-5807200D02*
X3690475Y-5854819D01*
X3690475Y-5854819D02*
X3499999Y-5854819D01*
X3499999Y-5854819D02*
X3404761Y-5807200D01*
X3404761Y-5807200D02*
X3357142Y-5759580D01*
X3357142Y-5759580D02*
X3309523Y-5664342D01*
X3309523Y-5664342D02*
X3309523Y-5473866D01*
X3309523Y-5473866D02*
X3357142Y-5378628D01*
X3357142Y-5378628D02*
X3404761Y-5331009D01*
X3404761Y-5331009D02*
X3499999Y-5283390D01*
D11*
X6395937Y-2931428D02*
X6361651Y-2862857D01*
X6361651Y-2862857D02*
X6293080Y-2794285D01*
X6293080Y-2794285D02*
X6190222Y-2691428D01*
X6190222Y-2691428D02*
X6155937Y-2622857D01*
X6155937Y-2622857D02*
X6155937Y-2554285D01*
X6327365Y-2588571D02*
X6293080Y-2520000D01*
X6293080Y-2520000D02*
X6224508Y-2451428D01*
X6224508Y-2451428D02*
X6087365Y-2417142D01*
X6087365Y-2417142D02*
X5847365Y-2417142D01*
X5847365Y-2417142D02*
X5710222Y-2451428D01*
X5710222Y-2451428D02*
X5641651Y-2520000D01*
X5641651Y-2520000D02*
X5607365Y-2588571D01*
X5607365Y-2588571D02*
X5607365Y-2725714D01*
X5607365Y-2725714D02*
X5641651Y-2794285D01*
X5641651Y-2794285D02*
X5710222Y-2862857D01*
X5710222Y-2862857D02*
X5847365Y-2897142D01*
X5847365Y-2897142D02*
X6087365Y-2897142D01*
X6087365Y-2897142D02*
X6224508Y-2862857D01*
X6224508Y-2862857D02*
X6293080Y-2794285D01*
X6293080Y-2794285D02*
X6327365Y-2725714D01*
X6327365Y-2725714D02*
X6327365Y-2588571D01*
X5675937Y-3171428D02*
X5641651Y-3205714D01*
X5641651Y-3205714D02*
X5607365Y-3274286D01*
X5607365Y-3274286D02*
X5607365Y-3445714D01*
X5607365Y-3445714D02*
X5641651Y-3514286D01*
X5641651Y-3514286D02*
X5675937Y-3548571D01*
X5675937Y-3548571D02*
X5744508Y-3582857D01*
X5744508Y-3582857D02*
X5813080Y-3582857D01*
X5813080Y-3582857D02*
X5915937Y-3548571D01*
X5915937Y-3548571D02*
X6327365Y-3137143D01*
X6327365Y-3137143D02*
X6327365Y-3582857D01*
D10*
X7774819Y2595238D02*
X7774819Y3166666D01*
X7774819Y2880952D02*
X6774819Y2880952D01*
X6774819Y2880952D02*
X6917676Y2976190D01*
X6917676Y2976190D02*
X7012914Y3071428D01*
X7012914Y3071428D02*
X7060533Y3166666D01*
X7108152Y1738095D02*
X7774819Y1738095D01*
X7108152Y2166666D02*
X7631961Y2166666D01*
X7631961Y2166666D02*
X7727200Y2119047D01*
X7727200Y2119047D02*
X7774819Y2023809D01*
X7774819Y2023809D02*
X7774819Y1880952D01*
X7774819Y1880952D02*
X7727200Y1785714D01*
X7727200Y1785714D02*
X7679580Y1738095D01*
X7251009Y928571D02*
X7251009Y1261904D01*
X7774819Y1261904D02*
X6774819Y1261904D01*
X6774819Y1261904D02*
X6774819Y785714D01*
D13*
X9179530Y2083333D02*
X9203340Y2107142D01*
X9203340Y2107142D02*
X9227149Y2178571D01*
X9227149Y2178571D02*
X9227149Y2226190D01*
X9227149Y2226190D02*
X9203340Y2297618D01*
X9203340Y2297618D02*
X9155720Y2345237D01*
X9155720Y2345237D02*
X9108101Y2369047D01*
X9108101Y2369047D02*
X9012863Y2392856D01*
X9012863Y2392856D02*
X8941435Y2392856D01*
X8941435Y2392856D02*
X8846197Y2369047D01*
X8846197Y2369047D02*
X8798578Y2345237D01*
X8798578Y2345237D02*
X8750959Y2297618D01*
X8750959Y2297618D02*
X8727149Y2226190D01*
X8727149Y2226190D02*
X8727149Y2178571D01*
X8727149Y2178571D02*
X8750959Y2107142D01*
X8750959Y2107142D02*
X8774768Y2083333D01*
X8893816Y1654761D02*
X9227149Y1654761D01*
X8703340Y1773809D02*
X9060482Y1892856D01*
X9060482Y1892856D02*
X9060482Y1583333D01*
D10*
X6928571Y-6358152D02*
X6928571Y-7024819D01*
X7166666Y-5977200D02*
X7404761Y-6691485D01*
X7404761Y-6691485D02*
X6785714Y-6691485D01*
X6404761Y-6929580D02*
X6357142Y-6977200D01*
X6357142Y-6977200D02*
X6404761Y-7024819D01*
X6404761Y-7024819D02*
X6452380Y-6977200D01*
X6452380Y-6977200D02*
X6404761Y-6929580D01*
X6404761Y-6929580D02*
X6404761Y-7024819D01*
X6023809Y-6024819D02*
X5357143Y-6024819D01*
X5357143Y-6024819D02*
X5785714Y-7024819D01*
X4976190Y-7024819D02*
X4976190Y-6024819D01*
X4880952Y-6643866D02*
X4595238Y-7024819D01*
X4595238Y-6358152D02*
X4976190Y-6739104D01*
D12*
X6066666Y-8181927D02*
X6199999Y-7991451D01*
X6295237Y-8181927D02*
X6295237Y-7781927D01*
X6295237Y-7781927D02*
X6142856Y-7781927D01*
X6142856Y-7781927D02*
X6104761Y-7800975D01*
X6104761Y-7800975D02*
X6085714Y-7820022D01*
X6085714Y-7820022D02*
X6066666Y-7858118D01*
X6066666Y-7858118D02*
X6066666Y-7915260D01*
X6066666Y-7915260D02*
X6085714Y-7953356D01*
X6085714Y-7953356D02*
X6104761Y-7972403D01*
X6104761Y-7972403D02*
X6142856Y-7991451D01*
X6142856Y-7991451D02*
X6295237Y-7991451D01*
X5723809Y-7915260D02*
X5723809Y-8181927D01*
X5819047Y-7762880D02*
X5914285Y-8048594D01*
X5914285Y-8048594D02*
X5666666Y-8048594D01*
D10*
X595238Y-11384819D02*
X1166666Y-11384819D01*
X880952Y-11384819D02*
X880952Y-10384819D01*
X880952Y-10384819D02*
X976190Y-10527676D01*
X976190Y-10527676D02*
X1071428Y-10622914D01*
X1071428Y-10622914D02*
X1166666Y-10670533D01*
X-23809Y-10384819D02*
X-119047Y-10384819D01*
X-119047Y-10384819D02*
X-214285Y-10432438D01*
X-214285Y-10432438D02*
X-261904Y-10480057D01*
X-261904Y-10480057D02*
X-309523Y-10575295D01*
X-309523Y-10575295D02*
X-357142Y-10765771D01*
X-357142Y-10765771D02*
X-357142Y-11003866D01*
X-357142Y-11003866D02*
X-309523Y-11194342D01*
X-309523Y-11194342D02*
X-261904Y-11289580D01*
X-261904Y-11289580D02*
X-214285Y-11337200D01*
X-214285Y-11337200D02*
X-119047Y-11384819D01*
X-119047Y-11384819D02*
X-23809Y-11384819D01*
X-23809Y-11384819D02*
X71428Y-11337200D01*
X71428Y-11337200D02*
X119047Y-11289580D01*
X119047Y-11289580D02*
X166666Y-11194342D01*
X166666Y-11194342D02*
X214285Y-11003866D01*
X214285Y-11003866D02*
X214285Y-10765771D01*
X214285Y-10765771D02*
X166666Y-10575295D01*
X166666Y-10575295D02*
X119047Y-10480057D01*
X119047Y-10480057D02*
X71428Y-10432438D01*
X71428Y-10432438D02*
X-23809Y-10384819D01*
X-785714Y-11384819D02*
X-785714Y-10384819D01*
X-880952Y-11003866D02*
X-1166666Y-11384819D01*
X-1166666Y-10718152D02*
X-785714Y-11099104D01*
D12*
X66666Y-9681927D02*
X199999Y-9491451D01*
X295237Y-9681927D02*
X295237Y-9281927D01*
X295237Y-9281927D02*
X142856Y-9281927D01*
X142856Y-9281927D02*
X104761Y-9300975D01*
X104761Y-9300975D02*
X85714Y-9320022D01*
X85714Y-9320022D02*
X66666Y-9358118D01*
X66666Y-9358118D02*
X66666Y-9415260D01*
X66666Y-9415260D02*
X85714Y-9453356D01*
X85714Y-9453356D02*
X104761Y-9472403D01*
X104761Y-9472403D02*
X142856Y-9491451D01*
X142856Y-9491451D02*
X295237Y-9491451D01*
X-295238Y-9281927D02*
X-104762Y-9281927D01*
X-104762Y-9281927D02*
X-85714Y-9472403D01*
X-85714Y-9472403D02*
X-104762Y-9453356D01*
X-104762Y-9453356D02*
X-142857Y-9434308D01*
X-142857Y-9434308D02*
X-238095Y-9434308D01*
X-238095Y-9434308D02*
X-276190Y-9453356D01*
X-276190Y-9453356D02*
X-295238Y-9472403D01*
X-295238Y-9472403D02*
X-314285Y-9510499D01*
X-314285Y-9510499D02*
X-314285Y-9605737D01*
X-314285Y-9605737D02*
X-295238Y-9643832D01*
X-295238Y-9643832D02*
X-276190Y-9662880D01*
X-276190Y-9662880D02*
X-238095Y-9681927D01*
X-238095Y-9681927D02*
X-142857Y-9681927D01*
X-142857Y-9681927D02*
X-104762Y-9662880D01*
X-104762Y-9662880D02*
X-85714Y-9643832D01*
D14*
%TO.C,U3*%
X-4600000Y6450000D02*
X-5800000Y6450000D01*
X-5800000Y3550000D01*
X-4200000Y3550000D01*
X-4200000Y6050000D01*
X-4600000Y6450000D01*
%TO.C,R2*%
X-3800000Y-7587500D02*
X-2200000Y-7587500D01*
X-2200000Y-8412500D01*
X-3800000Y-8412500D01*
X-3800000Y-7587500D01*
%TO.C,R3*%
X2200000Y-7587500D02*
X3800000Y-7587500D01*
X3800000Y-8412500D01*
X2200000Y-8412500D01*
X2200000Y-7587500D01*
%TO.C,R1*%
X-6800000Y-7587500D02*
X-5200000Y-7587500D01*
X-5200000Y-8412500D01*
X-6800000Y-8412500D01*
X-6800000Y-7587500D01*
%TO.C,C2*%
X-3500000Y8625000D02*
X-1500000Y8625000D01*
X-1500000Y7375000D01*
X-3500000Y7375000D01*
X-3500000Y8625000D01*
%TO.C,Q1*%
X-5675000Y-1550000D02*
X-6650000Y-1550000D01*
X-6650000Y-4450000D01*
X-5350000Y-4450000D01*
X-5350000Y-1875000D01*
X-5675000Y-1550000D01*
%TO.C,C1*%
X-9625000Y3000000D02*
X-8375000Y3000000D01*
X-8375000Y1000000D01*
X-9625000Y1000000D01*
X-9625000Y3000000D01*
%TO.C,U2*%
X-2800000Y1650000D02*
X2800000Y1650000D01*
X2800000Y-1650000D01*
X-2800000Y-1650000D01*
X-2800000Y1650000D01*
%TO.C,C3*%
X1000000Y7625000D02*
X3000000Y7625000D01*
X3000000Y6375000D01*
X1000000Y6375000D01*
X1000000Y7625000D01*
%TO.C,Q2*%
X6325000Y-1550000D02*
X5350000Y-1550000D01*
X5350000Y-4450000D01*
X6650000Y-4450000D01*
X6650000Y-1875000D01*
X6325000Y-1550000D01*
%TO.C,C4*%
X8375000Y3000000D02*
X9625000Y3000000D01*
X9625000Y1000000D01*
X8375000Y1000000D01*
X8375000Y3000000D01*
%TO.C,R4*%
X5200000Y-7587500D02*
X6800000Y-7587500D01*
X6800000Y-8412500D01*
X5200000Y-8412500D01*
X5200000Y-7587500D01*
%TO.C,R5*%
X-800000Y-9087500D02*
X800000Y-9087500D01*
X800000Y-9912500D01*
X-800000Y-9912500D01*
X-800000Y-9087500D01*
%TD*%
M02*
