%TF.GenerationSoftware,KiCad,Pcbnew,10.0.4*%
%TF.CreationDate,2026-07-24T19:44:11+02:00*%
%TF.ProjectId,PulseWristTrack,50756c73-6557-4726-9973-74547261636b,rev?*%
%TF.SameCoordinates,Original*%
%TF.FileFunction,Copper,L4,Bot*%
%TF.FilePolarity,Positive*%
%FSLAX46Y46*%
G04 Gerber Fmt 4.6, Leading zero omitted, Abs format (unit mm)*
G04 Created by KiCad (PCBNEW 10.0.4) date 2026-07-24 19:44:11*
%MOMM*%
%LPD*%
G01*
G04 APERTURE LIST*
G04 Aperture macros list*
%AMRoundRect*
0 Rectangle with rounded corners*
0 $1 Rounding radius*
0 $2 $3 $4 $5 $6 $7 $8 $9 X,Y pos of 4 corners*
0 Add a 4 corners polygon primitive as box body*
4,1,4,$2,$3,$4,$5,$6,$7,$8,$9,$2,$3,0*
0 Add four circle primitives for the rounded corners*
1,1,$1+$1,$2,$3*
1,1,$1+$1,$4,$5*
1,1,$1+$1,$6,$7*
1,1,$1+$1,$8,$9*
0 Add four rect primitives between the rounded corners*
20,1,$1+$1,$2,$3,$4,$5,0*
20,1,$1+$1,$4,$5,$6,$7,0*
20,1,$1+$1,$6,$7,$8,$9,0*
20,1,$1+$1,$8,$9,$2,$3,0*%
G04 Aperture macros list end*
%TA.AperFunction,ComponentPad*%
%ADD10RoundRect,0.250000X-0.350000X-0.625000X0.350000X-0.625000X0.350000X0.625000X-0.350000X0.625000X0*%
%TD*%
%TA.AperFunction,ComponentPad*%
%ADD11O,1.200000X1.750000*%
%TD*%
%TA.AperFunction,SMDPad,CuDef*%
%ADD12RoundRect,0.150000X0.512500X0.150000X-0.512500X0.150000X-0.512500X-0.150000X0.512500X-0.150000X0*%
%TD*%
%TA.AperFunction,SMDPad,CuDef*%
%ADD13RoundRect,0.200000X0.200000X0.275000X-0.200000X0.275000X-0.200000X-0.275000X0.200000X-0.275000X0*%
%TD*%
%TA.AperFunction,SMDPad,CuDef*%
%ADD14RoundRect,0.200000X-0.200000X-0.275000X0.200000X-0.275000X0.200000X0.275000X-0.200000X0.275000X0*%
%TD*%
%TA.AperFunction,SMDPad,CuDef*%
%ADD15RoundRect,0.250000X0.250000X0.475000X-0.250000X0.475000X-0.250000X-0.475000X0.250000X-0.475000X0*%
%TD*%
%TA.AperFunction,SMDPad,CuDef*%
%ADD16RoundRect,0.150000X0.587500X0.150000X-0.587500X0.150000X-0.587500X-0.150000X0.587500X-0.150000X0*%
%TD*%
%TA.AperFunction,SMDPad,CuDef*%
%ADD17RoundRect,0.250000X0.475000X-0.250000X0.475000X0.250000X-0.475000X0.250000X-0.475000X-0.250000X0*%
%TD*%
%TA.AperFunction,SMDPad,CuDef*%
%ADD18R,0.500000X0.600000*%
%TD*%
%TA.AperFunction,SMDPad,CuDef*%
%ADD19RoundRect,0.250000X-0.250000X-0.475000X0.250000X-0.475000X0.250000X0.475000X-0.250000X0.475000X0*%
%TD*%
%TA.AperFunction,ViaPad*%
%ADD20C,0.400000*%
%TD*%
%TA.AperFunction,ViaPad*%
%ADD21C,0.600000*%
%TD*%
%TA.AperFunction,Conductor*%
%ADD22C,0.400000*%
%TD*%
G04 APERTURE END LIST*
D10*
%TO.P,J1,1*%
%TO.N,BAT+*%
X-8000000Y8000000D03*
D11*
%TO.P,J1,2*%
%TO.N,GND*%
X-6000000Y8000000D03*
%TD*%
D12*
%TO.P,U3,1*%
%TO.N,+3V3*%
X-3862500Y5950000D03*
%TO.P,U3,2*%
%TO.N,GND*%
X-3862500Y5000000D03*
%TO.P,U3,3*%
%TO.N,+3V3*%
X-3862500Y4050000D03*
%TO.P,U3,4*%
%TO.N,N/C*%
X-6137500Y4050000D03*
%TO.P,U3,5*%
%TO.N,+1V8*%
X-6137500Y5950000D03*
%TD*%
D13*
%TO.P,R2,1*%
%TO.N,SCL_1V8*%
X-2175000Y-8000000D03*
%TO.P,R2,2*%
%TO.N,+1V8*%
X-3825000Y-8000000D03*
%TD*%
%TO.P,R3,1*%
%TO.N,SDA_3V3*%
X3825000Y-8000000D03*
%TO.P,R3,2*%
%TO.N,+3V3*%
X2175000Y-8000000D03*
%TD*%
D14*
%TO.P,R1,1*%
%TO.N,SDA_1V8*%
X-6825000Y-8000000D03*
%TO.P,R1,2*%
%TO.N,+1V8*%
X-5175000Y-8000000D03*
%TD*%
D15*
%TO.P,C2,1*%
%TO.N,+1V8*%
X-1550000Y8000000D03*
%TO.P,C2,2*%
%TO.N,GND*%
X-3450000Y8000000D03*
%TD*%
D16*
%TO.P,Q1,1*%
%TO.N,+1V8*%
X-5062500Y-2050000D03*
%TO.P,Q1,2*%
%TO.N,SDA_1V8*%
X-5062500Y-3950000D03*
%TO.P,Q1,3*%
%TO.N,SDA_3V3*%
X-6937500Y-3000000D03*
%TD*%
D17*
%TO.P,C1,1*%
%TO.N,+3V3*%
X-9000000Y1050000D03*
%TO.P,C1,2*%
%TO.N,GND*%
X-9000000Y2950000D03*
%TD*%
D18*
%TO.P,U2,1*%
%TO.N,SCL_1V8*%
X2400000Y1000000D03*
%TO.P,U2,2*%
%TO.N,SDA_1V8*%
X1600000Y1000000D03*
%TO.P,U2,3*%
%TO.N,GND*%
X800000Y1000000D03*
%TO.P,U2,4*%
X0Y1000000D03*
%TO.P,U2,5*%
%TO.N,+3V3*%
X-800000Y1000000D03*
%TO.P,U2,6*%
X-1600000Y1000000D03*
%TO.P,U2,7*%
%TO.N,N/C*%
X-2400000Y1000000D03*
%TO.P,U2,8*%
X-2400000Y-1000000D03*
%TO.P,U2,9*%
%TO.N,+1V8*%
X-1600000Y-1000000D03*
%TO.P,U2,10*%
%TO.N,+3V3*%
X-800000Y-1000000D03*
%TO.P,U2,11*%
%TO.N,GND*%
X0Y-1000000D03*
%TO.P,U2,12*%
%TO.N,INT*%
X800000Y-1000000D03*
%TO.P,U2,13*%
X1600000Y-1000000D03*
%TO.P,U2,14*%
%TO.N,N/C*%
X2400000Y-1000000D03*
%TD*%
D19*
%TO.P,C3,1*%
%TO.N,+3V3*%
X1050000Y7000000D03*
%TO.P,C3,2*%
%TO.N,GND*%
X2950000Y7000000D03*
%TD*%
D16*
%TO.P,Q2,1*%
%TO.N,+1V8*%
X6937500Y-2050000D03*
%TO.P,Q2,2*%
%TO.N,SCL_1V8*%
X6937500Y-3950000D03*
%TO.P,Q2,3*%
%TO.N,SCL_3V3*%
X5062500Y-3000000D03*
%TD*%
D17*
%TO.P,C4,1*%
%TO.N,+1V8*%
X9000000Y1050000D03*
%TO.P,C4,2*%
%TO.N,GND*%
X9000000Y2950000D03*
%TD*%
D14*
%TO.P,R4,1*%
%TO.N,SCL_3V3*%
X5175000Y-8000000D03*
%TO.P,R4,2*%
%TO.N,+3V3*%
X6825000Y-8000000D03*
%TD*%
D13*
%TO.P,R5,1*%
%TO.N,INT*%
X825000Y-9500000D03*
%TO.P,R5,2*%
%TO.N,+3V3*%
X-825000Y-9500000D03*
%TD*%
D20*
%TO.N,GND*%
X-100000Y-1000000D03*
D21*
X-9000000Y2950000D03*
X400000Y1000000D03*
X-7620000Y-6810000D03*
X-7620000Y-1730000D03*
X2950000Y7000000D03*
X-3450000Y8000000D03*
X9000000Y2950000D03*
X-3862500Y5000000D03*
%TO.N,+3V3*%
X-7620000Y810000D03*
X-1200000Y1000000D03*
X-825000Y-9500000D03*
X1050000Y7000000D03*
X-9000000Y1050000D03*
X6825000Y-8000000D03*
X2175000Y-8000000D03*
X-3862500Y5950000D03*
X-3862500Y4050000D03*
X-800000Y-800000D03*
%TO.N,INT*%
X549700Y-6119600D03*
X1619800Y-1100D03*
%TO.N,SDA_3V3*%
X3376300Y-9111200D03*
%TO.N,SCL_3V3*%
X5497800Y-5606100D03*
%TO.N,SDA_1V8*%
X-5068700Y-5176400D03*
X-2785500Y2571200D03*
%TD*%
%TO.N,GND*%
D22*
X400000Y1000000D02*
X800000Y1000000D01*
%TO.N,+3V3*%
X-1200000Y1000000D02*
X-800000Y1000000D01*
%TO.N,INT*%
X549700Y-6119600D02*
X549700Y-6394900D01*
X1619800Y-1100D02*
X1600000Y-20900D01*
X549700Y-6394900D02*
X549700Y-6119600D01*
X825000Y-6394900D02*
X549700Y-6119600D01*
X1600000Y-20900D02*
X1600000Y-1000000D01*
X825000Y-9500000D02*
X825000Y-6394900D01*
X800000Y-1000000D02*
X1600000Y-1000000D01*
%TO.N,SDA_3V3*%
X-8460500Y-7888800D02*
X-5864200Y-10485100D01*
X3825000Y-8662500D02*
X3825000Y-8259500D01*
X2002400Y-10485100D02*
X3376300Y-9111200D01*
X3825000Y-8000000D02*
X3825000Y-8176800D01*
X3376300Y-9111200D02*
X3376300Y-8745200D01*
X3376300Y-8745200D02*
X3376300Y-8662500D01*
X-5864200Y-10485100D02*
X2002400Y-10485100D01*
X3825000Y-8259500D02*
X3825000Y-8176800D01*
X-8460500Y-4523000D02*
X-8460500Y-7888800D01*
X3376300Y-8662500D02*
X3742300Y-8662500D01*
X3742300Y-8662500D02*
X3825000Y-8662500D01*
X-6937500Y-3000000D02*
X-8460500Y-4523000D01*
%TO.N,SCL_3V3*%
X6995900Y-5606100D02*
X5497800Y-5606100D01*
X7648800Y-3000000D02*
X8189100Y-3540300D01*
X5175000Y-5819800D02*
X5175000Y-8000000D01*
X5175000Y-5819800D02*
X5388700Y-5606100D01*
X8189100Y-3540300D02*
X8189100Y-4412900D01*
X5062500Y-3000000D02*
X7648800Y-3000000D01*
X5497800Y-5606100D02*
X5388700Y-5606100D01*
X8189100Y-4412900D02*
X6995900Y-5606100D01*
%TO.N,+1V8*%
X-4814200Y-1801700D02*
X-5062500Y-2050000D01*
X-5062500Y-2050000D02*
X-3778300Y-3334200D01*
X9000000Y1050000D02*
X6937500Y-1012500D01*
X-5315300Y6772200D02*
X-1550000Y6772200D01*
X-7318300Y3626300D02*
X-7318300Y4769200D01*
X-4744900Y-1801700D02*
X-4814200Y-1801700D01*
X-3778300Y-3334200D02*
X-3778300Y-7953300D01*
X-3825000Y-8000000D02*
X-5175000Y-8000000D01*
X-1550000Y6772200D02*
X4172200Y1050000D01*
X-7318300Y4769200D02*
X-6137500Y5950000D01*
X-1600000Y-1225000D02*
X-1600000Y-1000000D01*
X-1600000Y-1225000D02*
X-1600000Y-1801700D01*
X4172200Y1050000D02*
X9000000Y1050000D01*
X-4814200Y-1801700D02*
X-4814200Y1122200D01*
X-1550000Y6772200D02*
X-1550000Y8000000D01*
X-6137500Y5950000D02*
X-5315300Y6772200D01*
X6937500Y-1012500D02*
X6937500Y-2050000D01*
X-1600000Y-1801700D02*
X-4744900Y-1801700D01*
X-4814200Y1122200D02*
X-7318300Y3626300D01*
X-3778300Y-7953300D02*
X-3825000Y-8000000D01*
%TO.N,SCL_1V8*%
X2400000Y1000000D02*
X3151700Y1000000D01*
X2215800Y-3319800D02*
X-2175000Y-7710600D01*
X3781900Y-3950000D02*
X3151700Y-3319800D01*
X3151700Y-3319800D02*
X2215800Y-3319800D01*
X6937500Y-3950000D02*
X3781900Y-3950000D01*
X3151700Y-3319800D02*
X3151700Y1000000D01*
X-2175000Y-7710600D02*
X-2175000Y-8000000D01*
%TO.N,SDA_1V8*%
X-5498400Y-5606100D02*
X-5068700Y-5176400D01*
X-5062500Y-5176400D02*
X-5068700Y-5176400D01*
X830500Y2571200D02*
X1600000Y1801700D01*
X-5068700Y-5176400D02*
X-5498400Y-5606100D01*
X-5062500Y-5093700D02*
X-5062500Y-3950000D01*
X1600000Y1000000D02*
X1600000Y1801700D01*
X-6825000Y-8000000D02*
X-5068700Y-6243700D01*
X-5068700Y-6243700D02*
X-5068700Y-5176400D01*
X-5062500Y-5176400D02*
X-5062500Y-5093700D01*
X-2785500Y2571200D02*
X830500Y2571200D01*
%TD*%
M02*
